<svg width="375" height="667" viewBox="0 0 375 667" fill="none" xmlns="http://www.w3.org/2000/svg">
<rect width="375" height="667" fill="#232842"/>
<g clip-path="url(#clip0)">
<path d="M240 90.3657C240 85.76 238.176 81.343 234.928 78.0863C231.681 74.8296 227.276 73 222.684 73C218.091 73 213.686 74.8296 210.439 78.0863C207.192 81.343 205.367 85.76 205.367 90.3657C205.367 90.384 205.367 90.4003 205.367 90.4166V177.852C205.368 181.915 203.953 185.85 201.367 188.977C198.781 192.105 195.186 194.227 191.204 194.977C187.223 195.728 183.105 195.059 179.563 193.087C176.021 191.114 173.278 187.963 171.808 184.177C170.338 180.391 170.234 176.209 171.514 172.354C172.794 168.499 175.376 165.214 178.816 163.067C182.255 160.92 186.334 160.046 190.348 160.596C194.362 161.146 198.058 163.086 200.797 166.08V127.297C196.613 126.237 192.315 125.702 188 125.704C159.282 125.704 136 149.053 136 177.852C136 206.652 159.282 230 188 230C216.718 230 240 206.652 240 177.852V90.4166C240 90.4003 240 90.384 240 90.3657Z" fill="white"/>
</g>
<line x1="33" y1="482" x2="345" y2="482" stroke="white" stroke-width="2"/>
<path d="M39.4322 467.794C39.8282 467.794 40.1762 467.788 40.4762 467.776C40.7882 467.752 41.0462 467.716 41.2502 467.668V464.878C41.1302 464.818 40.9322 464.77 40.6562 464.734C40.3922 464.686 40.0682 464.662 39.6842 464.662C39.4322 464.662 39.1622 464.68 38.8742 464.716C38.5982 464.752 38.3402 464.83 38.1002 464.95C37.8722 465.058 37.6802 465.214 37.5242 465.418C37.3682 465.61 37.2902 465.868 37.2902 466.192C37.2902 466.792 37.4822 467.212 37.8662 467.452C38.2502 467.68 38.7722 467.794 39.4322 467.794ZM39.2882 459.406C39.9602 459.406 40.5242 459.496 40.9802 459.676C41.4482 459.844 41.8202 460.09 42.0962 460.414C42.3842 460.726 42.5882 461.104 42.7082 461.548C42.8282 461.98 42.8882 462.46 42.8882 462.988V468.838C42.7442 468.862 42.5402 468.898 42.2762 468.946C42.0242 468.982 41.7362 469.018 41.4122 469.054C41.0882 469.09 40.7342 469.12 40.3502 469.144C39.9782 469.18 39.6062 469.198 39.2342 469.198C38.7062 469.198 38.2202 469.144 37.7762 469.036C37.3322 468.928 36.9482 468.76 36.6242 468.532C36.3002 468.292 36.0482 467.98 35.8682 467.596C35.6882 467.212 35.5982 466.75 35.5982 466.21C35.5982 465.694 35.7002 465.25 35.9042 464.878C36.1202 464.506 36.4082 464.206 36.7682 463.978C37.1282 463.75 37.5482 463.582 38.0282 463.474C38.5082 463.366 39.0122 463.312 39.5402 463.312C39.7082 463.312 39.8822 463.324 40.0622 463.348C40.2422 463.36 40.4102 463.384 40.5662 463.42C40.7342 463.444 40.8782 463.468 40.9982 463.492C41.1182 463.516 41.2022 463.534 41.2502 463.546V463.078C41.2502 462.802 41.2202 462.532 41.1602 462.268C41.1002 461.992 40.9922 461.752 40.8362 461.548C40.6802 461.332 40.4642 461.164 40.1882 461.044C39.9242 460.912 39.5762 460.846 39.1442 460.846C38.5922 460.846 38.1062 460.888 37.6862 460.972C37.2782 461.044 36.9722 461.122 36.7682 461.206L36.5702 459.82C36.7862 459.724 37.1462 459.634 37.6502 459.55C38.1542 459.454 38.7002 459.406 39.2882 459.406ZM49.1245 459.442C49.2685 459.442 49.4305 459.454 49.6105 459.478C49.8025 459.49 49.9885 459.514 50.1685 459.55C50.3485 459.574 50.5105 459.604 50.6545 459.64C50.8105 459.664 50.9245 459.688 50.9965 459.712L50.7085 461.17C50.5765 461.122 50.3545 461.068 50.0425 461.008C49.7425 460.936 49.3525 460.9 48.8725 460.9C48.5605 460.9 48.2485 460.936 47.9365 461.008C47.6365 461.068 47.4385 461.11 47.3425 461.134V469H45.6685V460.036C46.0645 459.892 46.5565 459.76 47.1445 459.64C47.7325 459.508 48.3925 459.442 49.1245 459.442ZM54.1779 459.64H57.7239V461.044H54.1779V465.364C54.1779 465.832 54.2139 466.222 54.2859 466.534C54.3579 466.834 54.4659 467.074 54.6099 467.254C54.7539 467.422 54.9339 467.542 55.1499 467.614C55.3659 467.686 55.6179 467.722 55.9059 467.722C56.4099 467.722 56.8119 467.668 57.1119 467.56C57.4239 467.44 57.6399 467.356 57.7599 467.308L58.0839 468.694C57.9159 468.778 57.6219 468.88 57.2019 469C56.7819 469.132 56.3019 469.198 55.7619 469.198C55.1259 469.198 54.5979 469.12 54.1779 468.964C53.7699 468.796 53.4399 468.55 53.1879 468.226C52.9359 467.902 52.7559 467.506 52.6479 467.038C52.5519 466.558 52.5039 466.006 52.5039 465.382V457.03L54.1779 456.742V459.64ZM59.8541 469V455.32L61.5281 455.032V459.82C61.8401 459.7 62.1701 459.61 62.5181 459.55C62.8781 459.478 63.2321 459.442 63.5801 459.442C64.3241 459.442 64.9421 459.55 65.4341 459.766C65.9261 459.97 66.3161 460.264 66.6041 460.648C66.9041 461.02 67.1141 461.47 67.2341 461.998C67.3541 462.526 67.4141 463.108 67.4141 463.744V469H65.7401V464.104C65.7401 463.528 65.6981 463.036 65.6141 462.628C65.5421 462.22 65.4161 461.89 65.2361 461.638C65.0561 461.386 64.8161 461.206 64.5161 461.098C64.2161 460.978 63.8441 460.918 63.4001 460.918C63.2201 460.918 63.0341 460.93 62.8421 460.954C62.6501 460.978 62.4641 461.008 62.2841 461.044C62.1161 461.068 61.9601 461.098 61.8161 461.134C61.6841 461.17 61.5881 461.2 61.5281 461.224V469H59.8541ZM77.5893 468.73C77.2053 468.826 76.6953 468.928 76.0593 469.036C75.4353 469.144 74.7093 469.198 73.8813 469.198C73.1613 469.198 72.5553 469.096 72.0633 468.892C71.5713 468.676 71.1753 468.376 70.8753 467.992C70.5753 467.608 70.3593 467.158 70.2273 466.642C70.0953 466.114 70.0293 465.532 70.0293 464.896V459.64H71.7033V464.536C71.7033 465.676 71.8833 466.492 72.2433 466.984C72.6033 467.476 73.2093 467.722 74.0613 467.722C74.2413 467.722 74.4273 467.716 74.6193 467.704C74.8113 467.692 74.9913 467.68 75.1593 467.668C75.3273 467.644 75.4773 467.626 75.6093 467.614C75.7533 467.59 75.8553 467.566 75.9153 467.542V459.64H77.5893V468.73ZM83.9292 459.442C84.0732 459.442 84.2352 459.454 84.4152 459.478C84.6072 459.49 84.7932 459.514 84.9732 459.55C85.1532 459.574 85.3152 459.604 85.4592 459.64C85.6152 459.664 85.7292 459.688 85.8012 459.712L85.5132 461.17C85.3812 461.122 85.1592 461.068 84.8472 461.008C84.5472 460.936 84.1572 460.9 83.6772 460.9C83.3652 460.9 83.0532 460.936 82.7412 461.008C82.4412 461.068 82.2432 461.11 82.1472 461.134V469H80.4732V460.036C80.8692 459.892 81.3612 459.76 81.9492 459.64C82.5372 459.508 83.1972 459.442 83.9292 459.442ZM93.4646 461.62C93.2606 461.452 92.9666 461.29 92.5826 461.134C92.1986 460.978 91.7786 460.9 91.3226 460.9C90.8426 460.9 90.4286 460.99 90.0806 461.17C89.7446 461.338 89.4686 461.578 89.2526 461.89C89.0366 462.19 88.8806 462.55 88.7846 462.97C88.6886 463.39 88.6406 463.84 88.6406 464.32C88.6406 465.412 88.9106 466.258 89.4506 466.858C89.9906 467.446 90.7106 467.74 91.6106 467.74C92.0666 467.74 92.4446 467.722 92.7446 467.686C93.0566 467.638 93.2966 467.59 93.4646 467.542V461.62ZM93.4646 455.32L95.1386 455.032V468.73C94.7546 468.838 94.2626 468.946 93.6626 469.054C93.0626 469.162 92.3726 469.216 91.5926 469.216C90.8726 469.216 90.2246 469.102 89.6486 468.874C89.0726 468.646 88.5806 468.322 88.1726 467.902C87.7646 467.482 87.4466 466.972 87.2186 466.372C87.0026 465.76 86.8946 465.076 86.8946 464.32C86.8946 463.6 86.9846 462.94 87.1646 462.34C87.3566 461.74 87.6326 461.224 87.9926 460.792C88.3526 460.36 88.7906 460.024 89.3066 459.784C89.8346 459.544 90.4346 459.424 91.1066 459.424C91.6466 459.424 92.1206 459.496 92.5286 459.64C92.9486 459.784 93.2606 459.922 93.4646 460.054V455.32ZM99.6902 469H98.0162V459.64H99.6902V469ZM98.8442 457.948C98.5442 457.948 98.2862 457.852 98.0702 457.66C97.8662 457.456 97.7642 457.186 97.7642 456.85C97.7642 456.514 97.8662 456.25 98.0702 456.058C98.2862 455.854 98.5442 455.752 98.8442 455.752C99.1442 455.752 99.3962 455.854 99.6002 456.058C99.8162 456.25 99.9242 456.514 99.9242 456.85C99.9242 457.186 99.8162 457.456 99.6002 457.66C99.3962 457.852 99.1442 457.948 98.8442 457.948ZM108.437 468.064C108.293 468.16 108.011 468.286 107.591 468.442C107.183 468.586 106.703 468.658 106.151 468.658C105.587 468.658 105.053 468.568 104.549 468.388C104.057 468.208 103.625 467.932 103.253 467.56C102.881 467.176 102.587 466.702 102.371 466.138C102.155 465.574 102.047 464.902 102.047 464.122C102.047 463.438 102.149 462.814 102.353 462.25C102.557 461.674 102.851 461.182 103.235 460.774C103.631 460.354 104.111 460.03 104.675 459.802C105.239 459.562 105.875 459.442 106.583 459.442C107.363 459.442 108.041 459.502 108.617 459.622C109.205 459.73 109.697 459.832 110.093 459.928V468.28C110.093 469.72 109.721 470.764 108.977 471.412C108.233 472.06 107.105 472.384 105.593 472.384C105.005 472.384 104.447 472.336 103.919 472.24C103.403 472.144 102.953 472.03 102.569 471.898L102.875 470.44C103.211 470.572 103.619 470.686 104.099 470.782C104.591 470.89 105.101 470.944 105.629 470.944C106.625 470.944 107.339 470.746 107.771 470.35C108.215 469.954 108.437 469.324 108.437 468.46V468.064ZM108.419 461.116C108.251 461.068 108.023 461.026 107.735 460.99C107.459 460.942 107.081 460.918 106.601 460.918C105.701 460.918 105.005 461.212 104.513 461.8C104.033 462.388 103.793 463.168 103.793 464.14C103.793 464.68 103.859 465.142 103.991 465.526C104.135 465.91 104.321 466.228 104.549 466.48C104.789 466.732 105.059 466.918 105.359 467.038C105.671 467.158 105.989 467.218 106.313 467.218C106.757 467.218 107.165 467.158 107.537 467.038C107.909 466.906 108.203 466.756 108.419 466.588V461.116ZM114.649 460.054C114.853 459.922 115.159 459.784 115.567 459.64C115.987 459.496 116.467 459.424 117.007 459.424C117.679 459.424 118.273 459.544 118.789 459.784C119.317 460.024 119.761 460.36 120.121 460.792C120.481 461.224 120.751 461.74 120.931 462.34C121.123 462.94 121.219 463.6 121.219 464.32C121.219 465.076 121.105 465.76 120.877 466.372C120.661 466.972 120.349 467.482 119.941 467.902C119.533 468.322 119.041 468.646 118.465 468.874C117.889 469.102 117.241 469.216 116.521 469.216C115.741 469.216 115.051 469.162 114.451 469.054C113.851 468.946 113.359 468.838 112.975 468.73V455.32L114.649 455.032V460.054ZM114.649 467.542C114.817 467.59 115.051 467.638 115.351 467.686C115.663 467.722 116.047 467.74 116.503 467.74C117.403 467.74 118.123 467.446 118.663 466.858C119.203 466.258 119.473 465.412 119.473 464.32C119.473 463.84 119.425 463.39 119.329 462.97C119.233 462.55 119.077 462.19 118.861 461.89C118.645 461.578 118.363 461.338 118.015 461.17C117.679 460.99 117.271 460.9 116.791 460.9C116.335 460.9 115.915 460.978 115.531 461.134C115.147 461.29 114.853 461.452 114.649 461.62V467.542ZM122.248 470.746C122.38 470.806 122.548 470.86 122.752 470.908C122.968 470.968 123.178 470.998 123.382 470.998C124.042 470.998 124.558 470.848 124.93 470.548C125.302 470.26 125.638 469.786 125.938 469.126C125.182 467.686 124.474 466.162 123.814 464.554C123.166 462.934 122.626 461.296 122.194 459.64H123.994C124.126 460.18 124.282 460.762 124.462 461.386C124.654 462.01 124.864 462.652 125.092 463.312C125.32 463.972 125.566 464.632 125.83 465.292C126.094 465.952 126.37 466.588 126.658 467.2C127.114 465.94 127.51 464.692 127.846 463.456C128.182 462.22 128.5 460.948 128.8 459.64H130.528C130.096 461.404 129.616 463.102 129.088 464.734C128.56 466.354 127.99 467.872 127.378 469.288C127.138 469.828 126.886 470.29 126.622 470.674C126.37 471.07 126.088 471.394 125.776 471.646C125.464 471.898 125.11 472.084 124.714 472.204C124.33 472.324 123.892 472.384 123.4 472.384C123.268 472.384 123.13 472.372 122.986 472.348C122.842 472.336 122.698 472.312 122.554 472.276C122.422 472.252 122.296 472.222 122.176 472.186C122.068 472.15 121.99 472.12 121.942 472.096L122.248 470.746ZM134.472 467.794C135.156 467.794 135.66 467.704 135.984 467.524C136.32 467.344 136.488 467.056 136.488 466.66C136.488 466.252 136.326 465.928 136.002 465.688C135.678 465.448 135.144 465.178 134.4 464.878C134.04 464.734 133.692 464.59 133.356 464.446C133.032 464.29 132.75 464.11 132.51 463.906C132.27 463.702 132.078 463.456 131.934 463.168C131.79 462.88 131.718 462.526 131.718 462.106C131.718 461.278 132.024 460.624 132.636 460.144C133.248 459.652 134.082 459.406 135.138 459.406C135.402 459.406 135.666 459.424 135.93 459.46C136.194 459.484 136.44 459.52 136.668 459.568C136.896 459.604 137.094 459.646 137.262 459.694C137.442 459.742 137.58 459.784 137.676 459.82L137.37 461.26C137.19 461.164 136.908 461.068 136.524 460.972C136.14 460.864 135.678 460.81 135.138 460.81C134.67 460.81 134.262 460.906 133.914 461.098C133.566 461.278 133.392 461.566 133.392 461.962C133.392 462.166 133.428 462.346 133.5 462.502C133.584 462.658 133.704 462.802 133.86 462.934C134.028 463.054 134.232 463.168 134.472 463.276C134.712 463.384 135 463.498 135.336 463.618C135.78 463.786 136.176 463.954 136.524 464.122C136.872 464.278 137.166 464.464 137.406 464.68C137.658 464.896 137.85 465.16 137.982 465.472C138.114 465.772 138.18 466.144 138.18 466.588C138.18 467.452 137.856 468.106 137.208 468.55C136.572 468.994 135.66 469.216 134.472 469.216C133.644 469.216 132.996 469.144 132.528 469C132.06 468.868 131.742 468.766 131.574 468.694L131.88 467.254C132.072 467.326 132.378 467.434 132.798 467.578C133.218 467.722 133.776 467.794 134.472 467.794ZM139.805 464.338C139.805 463.51 139.925 462.79 140.165 462.178C140.405 461.554 140.723 461.038 141.119 460.63C141.515 460.222 141.971 459.916 142.487 459.712C143.003 459.508 143.531 459.406 144.071 459.406C145.331 459.406 146.297 459.802 146.969 460.594C147.641 461.374 147.977 462.568 147.977 464.176C147.977 464.248 147.977 464.344 147.977 464.464C147.977 464.572 147.971 464.674 147.959 464.77H141.551C141.623 465.742 141.905 466.48 142.397 466.984C142.889 467.488 143.657 467.74 144.701 467.74C145.289 467.74 145.781 467.692 146.177 467.596C146.585 467.488 146.891 467.386 147.095 467.29L147.329 468.694C147.125 468.802 146.765 468.916 146.249 469.036C145.745 469.156 145.169 469.216 144.521 469.216C143.705 469.216 142.997 469.096 142.397 468.856C141.809 468.604 141.323 468.262 140.939 467.83C140.555 467.398 140.267 466.888 140.075 466.3C139.895 465.7 139.805 465.046 139.805 464.338ZM146.231 463.42C146.243 462.664 146.051 462.046 145.655 461.566C145.271 461.074 144.737 460.828 144.053 460.828C143.669 460.828 143.327 460.906 143.027 461.062C142.739 461.206 142.493 461.398 142.289 461.638C142.085 461.878 141.923 462.154 141.803 462.466C141.695 462.778 141.623 463.096 141.587 463.42H146.231ZM153.189 469.18C152.157 469.156 151.425 468.934 150.993 468.514C150.561 468.094 150.345 467.44 150.345 466.552V455.32L152.019 455.032V466.282C152.019 466.558 152.043 466.786 152.091 466.966C152.139 467.146 152.217 467.29 152.325 467.398C152.433 467.506 152.577 467.59 152.757 467.65C152.937 467.698 153.159 467.74 153.423 467.776L153.189 469.18ZM158.111 469.18C157.079 469.156 156.347 468.934 155.915 468.514C155.483 468.094 155.267 467.44 155.267 466.552V455.32L156.941 455.032V466.282C156.941 466.558 156.965 466.786 157.013 466.966C157.061 467.146 157.139 467.29 157.247 467.398C157.355 467.506 157.499 467.59 157.679 467.65C157.859 467.698 158.081 467.74 158.345 467.776L158.111 469.18ZM159.703 464.338C159.703 463.51 159.823 462.79 160.063 462.178C160.303 461.554 160.621 461.038 161.017 460.63C161.413 460.222 161.869 459.916 162.385 459.712C162.901 459.508 163.429 459.406 163.969 459.406C165.229 459.406 166.195 459.802 166.867 460.594C167.539 461.374 167.875 462.568 167.875 464.176C167.875 464.248 167.875 464.344 167.875 464.464C167.875 464.572 167.869 464.674 167.857 464.77H161.449C161.521 465.742 161.803 466.48 162.295 466.984C162.787 467.488 163.555 467.74 164.599 467.74C165.187 467.74 165.679 467.692 166.075 467.596C166.483 467.488 166.789 467.386 166.993 467.29L167.227 468.694C167.023 468.802 166.663 468.916 166.147 469.036C165.643 469.156 165.067 469.216 164.419 469.216C163.603 469.216 162.895 469.096 162.295 468.856C161.707 468.604 161.221 468.262 160.837 467.83C160.453 467.398 160.165 466.888 159.973 466.3C159.793 465.7 159.703 465.046 159.703 464.338ZM166.129 463.42C166.141 462.664 165.949 462.046 165.553 461.566C165.169 461.074 164.635 460.828 163.951 460.828C163.567 460.828 163.225 460.906 162.925 461.062C162.637 461.206 162.391 461.398 162.187 461.638C161.983 461.878 161.821 462.154 161.701 462.466C161.593 462.778 161.521 463.096 161.485 463.42H166.129ZM173.736 459.442C173.88 459.442 174.042 459.454 174.222 459.478C174.414 459.49 174.6 459.514 174.78 459.55C174.96 459.574 175.122 459.604 175.266 459.64C175.422 459.664 175.536 459.688 175.608 459.712L175.32 461.17C175.188 461.122 174.966 461.068 174.654 461.008C174.354 460.936 173.964 460.9 173.484 460.9C173.172 460.9 172.86 460.936 172.548 461.008C172.248 461.068 172.05 461.11 171.954 461.134V469H170.28V460.036C170.676 459.892 171.168 459.76 171.756 459.64C172.344 459.508 173.004 459.442 173.736 459.442ZM179.401 467.794C180.085 467.794 180.589 467.704 180.913 467.524C181.249 467.344 181.417 467.056 181.417 466.66C181.417 466.252 181.255 465.928 180.931 465.688C180.607 465.448 180.073 465.178 179.329 464.878C178.969 464.734 178.621 464.59 178.285 464.446C177.961 464.29 177.679 464.11 177.439 463.906C177.199 463.702 177.007 463.456 176.863 463.168C176.719 462.88 176.647 462.526 176.647 462.106C176.647 461.278 176.953 460.624 177.565 460.144C178.177 459.652 179.011 459.406 180.067 459.406C180.331 459.406 180.595 459.424 180.859 459.46C181.123 459.484 181.369 459.52 181.597 459.568C181.825 459.604 182.023 459.646 182.191 459.694C182.371 459.742 182.509 459.784 182.605 459.82L182.299 461.26C182.119 461.164 181.837 461.068 181.453 460.972C181.069 460.864 180.607 460.81 180.067 460.81C179.599 460.81 179.191 460.906 178.843 461.098C178.495 461.278 178.321 461.566 178.321 461.962C178.321 462.166 178.357 462.346 178.429 462.502C178.513 462.658 178.633 462.802 178.789 462.934C178.957 463.054 179.161 463.168 179.401 463.276C179.641 463.384 179.929 463.498 180.265 463.618C180.709 463.786 181.105 463.954 181.453 464.122C181.801 464.278 182.095 464.464 182.335 464.68C182.587 464.896 182.779 465.16 182.911 465.472C183.043 465.772 183.109 466.144 183.109 466.588C183.109 467.452 182.785 468.106 182.137 468.55C181.501 468.994 180.589 469.216 179.401 469.216C178.573 469.216 177.925 469.144 177.457 469C176.989 468.868 176.671 468.766 176.503 468.694L176.809 467.254C177.001 467.326 177.307 467.434 177.727 467.578C178.147 467.722 178.705 467.794 179.401 467.794ZM192.222 459.712C192.222 460.144 192.132 460.564 191.952 460.972C191.784 461.368 191.556 461.764 191.268 462.16C190.98 462.544 190.656 462.928 190.296 463.312C189.936 463.684 189.576 464.05 189.216 464.41C189.012 464.614 188.772 464.854 188.496 465.13C188.232 465.406 187.98 465.694 187.74 465.994C187.5 466.294 187.296 466.582 187.128 466.858C186.972 467.134 186.894 467.374 186.894 467.578H192.636V469H185.076C185.064 468.928 185.058 468.856 185.058 468.784C185.058 468.712 185.058 468.646 185.058 468.586C185.058 468.022 185.148 467.5 185.328 467.02C185.52 466.528 185.766 466.066 186.066 465.634C186.366 465.202 186.702 464.794 187.074 464.41C187.446 464.026 187.812 463.654 188.172 463.294C188.472 463.006 188.754 462.724 189.018 462.448C189.294 462.16 189.534 461.878 189.738 461.602C189.954 461.314 190.122 461.02 190.242 460.72C190.374 460.42 190.44 460.102 190.44 459.766C190.44 459.406 190.38 459.1 190.26 458.848C190.152 458.596 190.002 458.386 189.81 458.218C189.618 458.05 189.39 457.93 189.126 457.858C188.874 457.774 188.604 457.732 188.316 457.732C187.968 457.732 187.65 457.78 187.362 457.876C187.074 457.972 186.816 458.086 186.588 458.218C186.36 458.338 186.168 458.47 186.012 458.614C185.856 458.746 185.736 458.848 185.652 458.92L184.824 457.732C184.932 457.612 185.094 457.468 185.31 457.3C185.526 457.12 185.784 456.952 186.084 456.796C186.384 456.64 186.72 456.508 187.092 456.4C187.464 456.292 187.866 456.238 188.298 456.238C189.606 456.238 190.584 456.544 191.232 457.156C191.892 457.756 192.222 458.608 192.222 459.712ZM206.397 468.226C206.013 468.226 205.695 468.172 205.443 468.064C205.191 467.956 204.981 467.812 204.813 467.632C204.549 467.776 204.231 467.902 203.859 468.01C203.487 468.106 203.115 468.154 202.743 468.154C202.167 468.154 201.639 468.064 201.159 467.884C200.691 467.704 200.283 467.44 199.935 467.092C199.587 466.732 199.317 466.294 199.125 465.778C198.933 465.262 198.837 464.662 198.837 463.978C198.837 463.402 198.927 462.862 199.107 462.358C199.287 461.842 199.551 461.398 199.899 461.026C200.259 460.642 200.691 460.342 201.195 460.126C201.711 459.91 202.293 459.802 202.941 459.802C203.553 459.802 204.111 459.85 204.615 459.946C205.131 460.042 205.527 460.138 205.803 460.234V465.742C205.803 466.126 205.869 466.396 206.001 466.552C206.133 466.708 206.307 466.786 206.523 466.786C206.835 466.786 207.105 466.678 207.333 466.462C207.573 466.246 207.765 465.964 207.909 465.616C208.065 465.268 208.179 464.878 208.251 464.446C208.323 464.002 208.359 463.552 208.359 463.096C208.359 462.34 208.227 461.632 207.963 460.972C207.699 460.3 207.321 459.712 206.829 459.208C206.337 458.704 205.737 458.308 205.029 458.02C204.333 457.732 203.547 457.588 202.671 457.588C201.795 457.588 200.991 457.738 200.259 458.038C199.527 458.326 198.897 458.746 198.369 459.298C197.841 459.838 197.427 460.504 197.127 461.296C196.839 462.088 196.695 462.988 196.695 463.996C196.695 465.052 196.851 465.982 197.163 466.786C197.475 467.578 197.907 468.244 198.459 468.784C199.023 469.312 199.683 469.708 200.439 469.972C201.207 470.248 202.047 470.386 202.959 470.386C203.667 470.386 204.249 470.344 204.705 470.26C205.173 470.176 205.473 470.11 205.605 470.062L205.785 471.394C205.581 471.466 205.209 471.544 204.669 471.628C204.141 471.712 203.571 471.754 202.959 471.754C201.891 471.754 200.883 471.598 199.935 471.286C198.987 470.986 198.159 470.518 197.451 469.882C196.743 469.258 196.179 468.46 195.759 467.488C195.351 466.504 195.147 465.34 195.147 463.996C195.147 462.7 195.351 461.566 195.759 460.594C196.167 459.622 196.713 458.818 197.397 458.182C198.093 457.534 198.891 457.048 199.791 456.724C200.703 456.4 201.663 456.238 202.671 456.238C203.655 456.238 204.585 456.4 205.461 456.724C206.337 457.036 207.105 457.498 207.765 458.11C208.425 458.71 208.947 459.442 209.331 460.306C209.715 461.158 209.907 462.124 209.907 463.204C209.907 464.02 209.811 464.74 209.619 465.364C209.439 465.988 209.193 466.516 208.881 466.948C208.569 467.368 208.197 467.686 207.765 467.902C207.333 468.118 206.877 468.226 206.397 468.226ZM202.797 466.768C203.049 466.768 203.301 466.744 203.553 466.696C203.817 466.636 204.051 466.552 204.255 466.444C204.219 466.288 204.195 466.132 204.183 465.976C204.171 465.82 204.165 465.67 204.165 465.526V461.296C204.093 461.272 203.955 461.248 203.751 461.224C203.547 461.2 203.319 461.188 203.067 461.188C202.215 461.188 201.579 461.452 201.159 461.98C200.739 462.508 200.529 463.174 200.529 463.978C200.529 464.83 200.733 465.508 201.141 466.012C201.549 466.516 202.101 466.768 202.797 466.768ZM218.388 468.064C218.244 468.16 217.962 468.286 217.542 468.442C217.134 468.586 216.654 468.658 216.102 468.658C215.538 468.658 215.004 468.568 214.5 468.388C214.008 468.208 213.576 467.932 213.204 467.56C212.832 467.176 212.538 466.702 212.322 466.138C212.106 465.574 211.998 464.902 211.998 464.122C211.998 463.438 212.1 462.814 212.304 462.25C212.508 461.674 212.802 461.182 213.186 460.774C213.582 460.354 214.062 460.03 214.626 459.802C215.19 459.562 215.826 459.442 216.534 459.442C217.314 459.442 217.992 459.502 218.568 459.622C219.156 459.73 219.648 459.832 220.044 459.928V468.28C220.044 469.72 219.672 470.764 218.928 471.412C218.184 472.06 217.056 472.384 215.544 472.384C214.956 472.384 214.398 472.336 213.87 472.24C213.354 472.144 212.904 472.03 212.52 471.898L212.826 470.44C213.162 470.572 213.57 470.686 214.05 470.782C214.542 470.89 215.052 470.944 215.58 470.944C216.576 470.944 217.29 470.746 217.722 470.35C218.166 469.954 218.388 469.324 218.388 468.46V468.064ZM218.37 461.116C218.202 461.068 217.974 461.026 217.686 460.99C217.41 460.942 217.032 460.918 216.552 460.918C215.652 460.918 214.956 461.212 214.464 461.8C213.984 462.388 213.744 463.168 213.744 464.14C213.744 464.68 213.81 465.142 213.942 465.526C214.086 465.91 214.272 466.228 214.5 466.48C214.74 466.732 215.01 466.918 215.31 467.038C215.622 467.158 215.94 467.218 216.264 467.218C216.708 467.218 217.116 467.158 217.488 467.038C217.86 466.906 218.154 466.756 218.37 466.588V461.116ZM231.188 464.32C231.188 465.064 231.08 465.736 230.864 466.336C230.648 466.936 230.342 467.452 229.946 467.884C229.562 468.316 229.1 468.652 228.56 468.892C228.02 469.12 227.432 469.234 226.796 469.234C226.16 469.234 225.572 469.12 225.032 468.892C224.492 468.652 224.024 468.316 223.628 467.884C223.244 467.452 222.944 466.936 222.728 466.336C222.512 465.736 222.404 465.064 222.404 464.32C222.404 463.588 222.512 462.922 222.728 462.322C222.944 461.71 223.244 461.188 223.628 460.756C224.024 460.324 224.492 459.994 225.032 459.766C225.572 459.526 226.16 459.406 226.796 459.406C227.432 459.406 228.02 459.526 228.56 459.766C229.1 459.994 229.562 460.324 229.946 460.756C230.342 461.188 230.648 461.71 230.864 462.322C231.08 462.922 231.188 463.588 231.188 464.32ZM229.442 464.32C229.442 463.264 229.202 462.43 228.722 461.818C228.254 461.194 227.612 460.882 226.796 460.882C225.98 460.882 225.332 461.194 224.852 461.818C224.384 462.43 224.15 463.264 224.15 464.32C224.15 465.376 224.384 466.216 224.852 466.84C225.332 467.452 225.98 467.758 226.796 467.758C227.612 467.758 228.254 467.452 228.722 466.84C229.202 466.216 229.442 465.376 229.442 464.32ZM241.806 464.32C241.806 465.064 241.698 465.736 241.482 466.336C241.266 466.936 240.96 467.452 240.564 467.884C240.18 468.316 239.718 468.652 239.178 468.892C238.638 469.12 238.05 469.234 237.414 469.234C236.778 469.234 236.19 469.12 235.65 468.892C235.11 468.652 234.642 468.316 234.246 467.884C233.862 467.452 233.562 466.936 233.346 466.336C233.13 465.736 233.022 465.064 233.022 464.32C233.022 463.588 233.13 462.922 233.346 462.322C233.562 461.71 233.862 461.188 234.246 460.756C234.642 460.324 235.11 459.994 235.65 459.766C236.19 459.526 236.778 459.406 237.414 459.406C238.05 459.406 238.638 459.526 239.178 459.766C239.718 459.994 240.18 460.324 240.564 460.756C240.96 461.188 241.266 461.71 241.482 462.322C241.698 462.922 241.806 463.588 241.806 464.32ZM240.06 464.32C240.06 463.264 239.82 462.43 239.34 461.818C238.872 461.194 238.23 460.882 237.414 460.882C236.598 460.882 235.95 461.194 235.47 461.818C235.002 462.43 234.768 463.264 234.768 464.32C234.768 465.376 235.002 466.216 235.47 466.84C235.95 467.452 236.598 467.758 237.414 467.758C238.23 467.758 238.872 467.452 239.34 466.84C239.82 466.216 240.06 465.376 240.06 464.32ZM250.029 468.064C249.885 468.16 249.603 468.286 249.183 468.442C248.775 468.586 248.295 468.658 247.743 468.658C247.179 468.658 246.645 468.568 246.141 468.388C245.649 468.208 245.217 467.932 244.845 467.56C244.473 467.176 244.179 466.702 243.963 466.138C243.747 465.574 243.639 464.902 243.639 464.122C243.639 463.438 243.741 462.814 243.945 462.25C244.149 461.674 244.443 461.182 244.827 460.774C245.223 460.354 245.703 460.03 246.267 459.802C246.831 459.562 247.467 459.442 248.175 459.442C248.955 459.442 249.633 459.502 250.209 459.622C250.797 459.73 251.289 459.832 251.685 459.928V468.28C251.685 469.72 251.313 470.764 250.569 471.412C249.825 472.06 248.697 472.384 247.185 472.384C246.597 472.384 246.039 472.336 245.511 472.24C244.995 472.144 244.545 472.03 244.161 471.898L244.467 470.44C244.803 470.572 245.211 470.686 245.691 470.782C246.183 470.89 246.693 470.944 247.221 470.944C248.217 470.944 248.931 470.746 249.363 470.35C249.807 469.954 250.029 469.324 250.029 468.46V468.064ZM250.011 461.116C249.843 461.068 249.615 461.026 249.327 460.99C249.051 460.942 248.673 460.918 248.193 460.918C247.293 460.918 246.597 461.212 246.105 461.8C245.625 462.388 245.385 463.168 245.385 464.14C245.385 464.68 245.451 465.142 245.583 465.526C245.727 465.91 245.913 466.228 246.141 466.48C246.381 466.732 246.651 466.918 246.951 467.038C247.263 467.158 247.581 467.218 247.905 467.218C248.349 467.218 248.757 467.158 249.129 467.038C249.501 466.906 249.795 466.756 250.011 466.588V461.116ZM257.375 469.18C256.343 469.156 255.611 468.934 255.179 468.514C254.747 468.094 254.531 467.44 254.531 466.552V455.32L256.205 455.032V466.282C256.205 466.558 256.229 466.786 256.277 466.966C256.325 467.146 256.403 467.29 256.511 467.398C256.619 467.506 256.763 467.59 256.943 467.65C257.123 467.698 257.345 467.74 257.609 467.776L257.375 469.18ZM258.967 464.338C258.967 463.51 259.087 462.79 259.327 462.178C259.567 461.554 259.885 461.038 260.281 460.63C260.677 460.222 261.133 459.916 261.649 459.712C262.165 459.508 262.693 459.406 263.233 459.406C264.493 459.406 265.459 459.802 266.131 460.594C266.803 461.374 267.139 462.568 267.139 464.176C267.139 464.248 267.139 464.344 267.139 464.464C267.139 464.572 267.133 464.674 267.121 464.77H260.713C260.785 465.742 261.067 466.48 261.559 466.984C262.051 467.488 262.819 467.74 263.863 467.74C264.451 467.74 264.943 467.692 265.339 467.596C265.747 467.488 266.053 467.386 266.257 467.29L266.491 468.694C266.287 468.802 265.927 468.916 265.411 469.036C264.907 469.156 264.331 469.216 263.683 469.216C262.867 469.216 262.159 469.096 261.559 468.856C260.971 468.604 260.485 468.262 260.101 467.83C259.717 467.398 259.429 466.888 259.237 466.3C259.057 465.7 258.967 465.046 258.967 464.338ZM265.393 463.42C265.405 462.664 265.213 462.046 264.817 461.566C264.433 461.074 263.899 460.828 263.215 460.828C262.831 460.828 262.489 460.906 262.189 461.062C261.901 461.206 261.655 461.398 261.451 461.638C261.247 461.878 261.085 462.154 260.965 462.466C260.857 462.778 260.785 463.096 260.749 463.42H265.393ZM269.544 459.91C269.928 459.814 270.432 459.712 271.056 459.604C271.692 459.496 272.424 459.442 273.252 459.442C273.852 459.442 274.356 459.526 274.764 459.694C275.172 459.85 275.514 460.084 275.79 460.396C275.874 460.336 276.006 460.252 276.186 460.144C276.366 460.036 276.588 459.934 276.852 459.838C277.116 459.73 277.41 459.64 277.734 459.568C278.058 459.484 278.406 459.442 278.778 459.442C279.498 459.442 280.086 459.55 280.542 459.766C280.998 459.97 281.352 460.264 281.604 460.648C281.868 461.032 282.042 461.488 282.126 462.016C282.222 462.544 282.27 463.12 282.27 463.744V469H280.596V464.104C280.596 463.552 280.566 463.078 280.506 462.682C280.458 462.286 280.356 461.956 280.2 461.692C280.056 461.428 279.852 461.236 279.588 461.116C279.336 460.984 279.006 460.918 278.598 460.918C278.034 460.918 277.566 460.996 277.194 461.152C276.834 461.296 276.588 461.428 276.456 461.548C276.552 461.86 276.624 462.202 276.672 462.574C276.72 462.946 276.744 463.336 276.744 463.744V469H275.07V464.104C275.07 463.552 275.04 463.078 274.98 462.682C274.92 462.286 274.812 461.956 274.656 461.692C274.512 461.428 274.308 461.236 274.044 461.116C273.792 460.984 273.468 460.918 273.072 460.918C272.904 460.918 272.724 460.924 272.532 460.936C272.34 460.948 272.154 460.966 271.974 460.99C271.806 461.002 271.65 461.02 271.506 461.044C271.362 461.068 271.266 461.086 271.218 461.098V469H269.544V459.91ZM288.215 467.794C288.611 467.794 288.959 467.788 289.259 467.776C289.571 467.752 289.829 467.716 290.033 467.668V464.878C289.913 464.818 289.715 464.77 289.439 464.734C289.175 464.686 288.851 464.662 288.467 464.662C288.215 464.662 287.945 464.68 287.657 464.716C287.381 464.752 287.123 464.83 286.883 464.95C286.655 465.058 286.463 465.214 286.307 465.418C286.151 465.61 286.073 465.868 286.073 466.192C286.073 466.792 286.265 467.212 286.649 467.452C287.033 467.68 287.555 467.794 288.215 467.794ZM288.071 459.406C288.743 459.406 289.307 459.496 289.763 459.676C290.231 459.844 290.603 460.09 290.879 460.414C291.167 460.726 291.371 461.104 291.491 461.548C291.611 461.98 291.671 462.46 291.671 462.988V468.838C291.527 468.862 291.323 468.898 291.059 468.946C290.807 468.982 290.519 469.018 290.195 469.054C289.871 469.09 289.517 469.12 289.133 469.144C288.761 469.18 288.389 469.198 288.017 469.198C287.489 469.198 287.003 469.144 286.559 469.036C286.115 468.928 285.731 468.76 285.407 468.532C285.083 468.292 284.831 467.98 284.651 467.596C284.471 467.212 284.381 466.75 284.381 466.21C284.381 465.694 284.483 465.25 284.687 464.878C284.903 464.506 285.191 464.206 285.551 463.978C285.911 463.75 286.331 463.582 286.811 463.474C287.291 463.366 287.795 463.312 288.323 463.312C288.491 463.312 288.665 463.324 288.845 463.348C289.025 463.36 289.193 463.384 289.349 463.42C289.517 463.444 289.661 463.468 289.781 463.492C289.901 463.516 289.985 463.534 290.033 463.546V463.078C290.033 462.802 290.003 462.532 289.943 462.268C289.883 461.992 289.775 461.752 289.619 461.548C289.463 461.332 289.247 461.164 288.971 461.044C288.707 460.912 288.359 460.846 287.927 460.846C287.375 460.846 286.889 460.888 286.469 460.972C286.061 461.044 285.755 461.122 285.551 461.206L285.353 459.82C285.569 459.724 285.929 459.634 286.433 459.55C286.937 459.454 287.483 459.406 288.071 459.406ZM296.126 469H294.452V459.64H296.126V469ZM295.28 457.948C294.98 457.948 294.722 457.852 294.506 457.66C294.302 457.456 294.2 457.186 294.2 456.85C294.2 456.514 294.302 456.25 294.506 456.058C294.722 455.854 294.98 455.752 295.28 455.752C295.58 455.752 295.832 455.854 296.036 456.058C296.252 456.25 296.36 456.514 296.36 456.85C296.36 457.186 296.252 457.456 296.036 457.66C295.832 457.852 295.58 457.948 295.28 457.948ZM301.812 469.18C300.78 469.156 300.048 468.934 299.616 468.514C299.184 468.094 298.968 467.44 298.968 466.552V455.32L300.642 455.032V466.282C300.642 466.558 300.666 466.786 300.714 466.966C300.762 467.146 300.84 467.29 300.948 467.398C301.056 467.506 301.2 467.59 301.38 467.65C301.56 467.698 301.782 467.74 302.046 467.776L301.812 469.18ZM305.906 468.028C305.906 468.352 305.798 468.634 305.582 468.874C305.366 469.114 305.072 469.234 304.7 469.234C304.328 469.234 304.034 469.114 303.818 468.874C303.602 468.634 303.494 468.352 303.494 468.028C303.494 467.704 303.602 467.422 303.818 467.182C304.034 466.942 304.328 466.822 304.7 466.822C305.072 466.822 305.366 466.942 305.582 467.182C305.798 467.422 305.906 467.704 305.906 468.028ZM312.424 469.216C311.668 469.216 311.002 469.096 310.426 468.856C309.862 468.616 309.382 468.28 308.986 467.848C308.602 467.416 308.314 466.906 308.122 466.318C307.93 465.718 307.834 465.058 307.834 464.338C307.834 463.618 307.936 462.958 308.14 462.358C308.356 461.758 308.656 461.242 309.04 460.81C309.424 460.366 309.892 460.024 310.444 459.784C311.008 459.532 311.632 459.406 312.316 459.406C312.736 459.406 313.156 459.442 313.576 459.514C313.996 459.586 314.398 459.7 314.782 459.856L314.404 461.278C314.152 461.158 313.858 461.062 313.522 460.99C313.198 460.918 312.85 460.882 312.478 460.882C311.542 460.882 310.822 461.176 310.318 461.764C309.826 462.352 309.58 463.21 309.58 464.338C309.58 464.842 309.634 465.304 309.742 465.724C309.862 466.144 310.042 466.504 310.282 466.804C310.534 467.104 310.852 467.338 311.236 467.506C311.62 467.662 312.088 467.74 312.64 467.74C313.084 467.74 313.486 467.698 313.846 467.614C314.206 467.53 314.488 467.44 314.692 467.344L314.926 468.748C314.83 468.808 314.692 468.868 314.512 468.928C314.332 468.976 314.128 469.018 313.9 469.054C313.672 469.102 313.426 469.138 313.162 469.162C312.91 469.198 312.664 469.216 312.424 469.216ZM324.757 464.32C324.757 465.064 324.649 465.736 324.433 466.336C324.217 466.936 323.911 467.452 323.515 467.884C323.131 468.316 322.669 468.652 322.129 468.892C321.589 469.12 321.001 469.234 320.365 469.234C319.729 469.234 319.141 469.12 318.601 468.892C318.061 468.652 317.593 468.316 317.197 467.884C316.813 467.452 316.513 466.936 316.297 466.336C316.081 465.736 315.973 465.064 315.973 464.32C315.973 463.588 316.081 462.922 316.297 462.322C316.513 461.71 316.813 461.188 317.197 460.756C317.593 460.324 318.061 459.994 318.601 459.766C319.141 459.526 319.729 459.406 320.365 459.406C321.001 459.406 321.589 459.526 322.129 459.766C322.669 459.994 323.131 460.324 323.515 460.756C323.911 461.188 324.217 461.71 324.433 462.322C324.649 462.922 324.757 463.588 324.757 464.32ZM323.011 464.32C323.011 463.264 322.771 462.43 322.291 461.818C321.823 461.194 321.181 460.882 320.365 460.882C319.549 460.882 318.901 461.194 318.421 461.818C317.953 462.43 317.719 463.264 317.719 464.32C317.719 465.376 317.953 466.216 318.421 466.84C318.901 467.452 319.549 467.758 320.365 467.758C321.181 467.758 321.823 467.452 322.291 466.84C322.771 466.216 323.011 465.376 323.011 464.32ZM327.112 459.91C327.496 459.814 328 459.712 328.624 459.604C329.26 459.496 329.992 459.442 330.82 459.442C331.42 459.442 331.924 459.526 332.332 459.694C332.74 459.85 333.082 460.084 333.358 460.396C333.442 460.336 333.574 460.252 333.754 460.144C333.934 460.036 334.156 459.934 334.42 459.838C334.684 459.73 334.978 459.64 335.302 459.568C335.626 459.484 335.974 459.442 336.346 459.442C337.066 459.442 337.654 459.55 338.11 459.766C338.566 459.97 338.92 460.264 339.172 460.648C339.436 461.032 339.61 461.488 339.694 462.016C339.79 462.544 339.838 463.12 339.838 463.744V469H338.164V464.104C338.164 463.552 338.134 463.078 338.074 462.682C338.026 462.286 337.924 461.956 337.768 461.692C337.624 461.428 337.42 461.236 337.156 461.116C336.904 460.984 336.574 460.918 336.166 460.918C335.602 460.918 335.134 460.996 334.762 461.152C334.402 461.296 334.156 461.428 334.024 461.548C334.12 461.86 334.192 462.202 334.24 462.574C334.288 462.946 334.312 463.336 334.312 463.744V469H332.638V464.104C332.638 463.552 332.608 463.078 332.548 462.682C332.488 462.286 332.38 461.956 332.224 461.692C332.08 461.428 331.876 461.236 331.612 461.116C331.36 460.984 331.036 460.918 330.64 460.918C330.472 460.918 330.292 460.924 330.1 460.936C329.908 460.948 329.722 460.966 329.542 460.99C329.374 461.002 329.218 461.02 329.074 461.044C328.93 461.068 328.834 461.086 328.786 461.098V469H327.112V459.91Z" fill="white"/>
<rect x="32" y="511" width="312" height="45" stroke="white" stroke-width="2"/>
<path d="M83.4137 531.16C83.1417 530.936 82.7497 530.72 82.2377 530.512C81.7257 530.304 81.1657 530.2 80.5577 530.2C79.9177 530.2 79.3657 530.32 78.9017 530.56C78.4537 530.784 78.0857 531.104 77.7977 531.52C77.5097 531.92 77.3017 532.4 77.1737 532.96C77.0457 533.52 76.9817 534.12 76.9817 534.76C76.9817 536.216 77.3417 537.344 78.0617 538.144C78.7817 538.928 79.7417 539.32 80.9417 539.32C81.5497 539.32 82.0537 539.296 82.4537 539.248C82.8697 539.184 83.1897 539.12 83.4137 539.056V531.16ZM83.4137 522.76L85.6457 522.376V540.64C85.1337 540.784 84.4777 540.928 83.6777 541.072C82.8777 541.216 81.9577 541.288 80.9177 541.288C79.9577 541.288 79.0937 541.136 78.3257 540.832C77.5577 540.528 76.9017 540.096 76.3577 539.536C75.8137 538.976 75.3897 538.296 75.0857 537.496C74.7977 536.68 74.6537 535.768 74.6537 534.76C74.6537 533.8 74.7737 532.92 75.0137 532.12C75.2697 531.32 75.6377 530.632 76.1177 530.056C76.5977 529.48 77.1817 529.032 77.8697 528.712C78.5737 528.392 79.3737 528.232 80.2697 528.232C80.9897 528.232 81.6217 528.328 82.1657 528.52C82.7257 528.712 83.1417 528.896 83.4137 529.072V522.76ZM88.7865 534.784C88.7865 533.68 88.9465 532.72 89.2665 531.904C89.5865 531.072 90.0105 530.384 90.5385 529.84C91.0665 529.296 91.6745 528.888 92.3625 528.616C93.0505 528.344 93.7545 528.208 94.4745 528.208C96.1545 528.208 97.4425 528.736 98.3385 529.792C99.2345 530.832 99.6825 532.424 99.6825 534.568C99.6825 534.664 99.6825 534.792 99.6825 534.952C99.6825 535.096 99.6745 535.232 99.6585 535.36H91.1145C91.2105 536.656 91.5865 537.64 92.2425 538.312C92.8985 538.984 93.9225 539.32 95.3145 539.32C96.0985 539.32 96.7545 539.256 97.2825 539.128C97.8265 538.984 98.2345 538.848 98.5065 538.72L98.8185 540.592C98.5465 540.736 98.0665 540.888 97.3785 541.048C96.7065 541.208 95.9385 541.288 95.0745 541.288C93.9865 541.288 93.0425 541.128 92.2425 540.808C91.4585 540.472 90.8105 540.016 90.2985 539.44C89.7865 538.864 89.4025 538.184 89.1465 537.4C88.9065 536.6 88.7865 535.728 88.7865 534.784ZM97.3545 533.56C97.3705 532.552 97.1145 531.728 96.5865 531.088C96.0745 530.432 95.3625 530.104 94.4505 530.104C93.9385 530.104 93.4825 530.208 93.0825 530.416C92.6985 530.608 92.3705 530.864 92.0985 531.184C91.8265 531.504 91.6105 531.872 91.4505 532.288C91.3065 532.704 91.2105 533.128 91.1625 533.56H97.3545ZM102.193 534.784C102.193 533.68 102.353 532.72 102.673 531.904C102.993 531.072 103.417 530.384 103.945 529.84C104.473 529.296 105.081 528.888 105.769 528.616C106.457 528.344 107.161 528.208 107.881 528.208C109.561 528.208 110.849 528.736 111.745 529.792C112.641 530.832 113.089 532.424 113.089 534.568C113.089 534.664 113.089 534.792 113.089 534.952C113.089 535.096 113.081 535.232 113.065 535.36H104.521C104.617 536.656 104.993 537.64 105.649 538.312C106.305 538.984 107.329 539.32 108.721 539.32C109.505 539.32 110.161 539.256 110.689 539.128C111.233 538.984 111.641 538.848 111.913 538.72L112.225 540.592C111.953 540.736 111.473 540.888 110.785 541.048C110.113 541.208 109.345 541.288 108.481 541.288C107.393 541.288 106.449 541.128 105.649 540.808C104.865 540.472 104.217 540.016 103.705 539.44C103.193 538.864 102.809 538.184 102.553 537.4C102.313 536.6 102.193 535.728 102.193 534.784ZM110.761 533.56C110.777 532.552 110.521 531.728 109.993 531.088C109.481 530.432 108.769 530.104 107.857 530.104C107.345 530.104 106.889 530.208 106.489 530.416C106.105 530.608 105.777 530.864 105.505 531.184C105.233 531.504 105.017 531.872 104.857 532.288C104.713 532.704 104.617 533.128 104.569 533.56H110.761ZM124.959 534.784C124.959 533.328 124.599 532.208 123.879 531.424C123.159 530.64 122.199 530.248 120.999 530.248C120.327 530.248 119.799 530.272 119.415 530.32C119.047 530.368 118.751 530.424 118.527 530.488V538.36C118.799 538.584 119.191 538.8 119.703 539.008C120.215 539.216 120.775 539.32 121.383 539.32C122.023 539.32 122.567 539.208 123.015 538.984C123.479 538.744 123.855 538.424 124.143 538.024C124.431 537.608 124.639 537.128 124.767 536.584C124.895 536.024 124.959 535.424 124.959 534.784ZM127.287 534.784C127.287 535.728 127.159 536.6 126.903 537.4C126.663 538.2 126.303 538.888 125.823 539.464C125.343 540.04 124.751 540.488 124.047 540.808C123.359 541.128 122.567 541.288 121.671 541.288C120.951 541.288 120.311 541.192 119.751 541C119.207 540.808 118.799 540.624 118.527 540.448V545.44H116.295V528.904C116.823 528.776 117.479 528.64 118.263 528.496C119.063 528.336 119.983 528.256 121.023 528.256C121.983 528.256 122.847 528.408 123.615 528.712C124.383 529.016 125.039 529.448 125.583 530.008C126.127 530.568 126.543 531.256 126.831 532.072C127.135 532.872 127.287 533.776 127.287 534.784ZM134.172 541.24C132.796 541.208 131.82 540.912 131.244 540.352C130.668 539.792 130.38 538.92 130.38 537.736V522.76L132.612 522.376V537.376C132.612 537.744 132.644 538.048 132.708 538.288C132.772 538.528 132.876 538.72 133.02 538.864C133.164 539.008 133.356 539.12 133.596 539.2C133.836 539.264 134.132 539.32 134.484 539.368L134.172 541.24ZM139.222 541H136.99V528.52H139.222V541ZM138.094 526.264C137.694 526.264 137.35 526.136 137.062 525.88C136.79 525.608 136.654 525.248 136.654 524.8C136.654 524.352 136.79 524 137.062 523.744C137.35 523.472 137.694 523.336 138.094 523.336C138.494 523.336 138.83 523.472 139.102 523.744C139.39 524 139.534 524.352 139.534 524.8C139.534 525.248 139.39 525.608 139.102 525.88C138.83 526.136 138.494 526.264 138.094 526.264ZM143.061 528.88C143.573 528.752 144.253 528.616 145.101 528.472C145.949 528.328 146.925 528.256 148.029 528.256C149.021 528.256 149.845 528.4 150.501 528.688C151.157 528.96 151.677 529.352 152.061 529.864C152.461 530.36 152.741 530.96 152.901 531.664C153.061 532.368 153.141 533.144 153.141 533.992V541H150.909V534.472C150.909 533.704 150.853 533.048 150.741 532.504C150.645 531.96 150.477 531.52 150.237 531.184C149.997 530.848 149.677 530.608 149.277 530.464C148.877 530.304 148.381 530.224 147.789 530.224C147.549 530.224 147.301 530.232 147.045 530.248C146.789 530.264 146.541 530.288 146.301 530.32C146.077 530.336 145.869 530.36 145.677 530.392C145.501 530.424 145.373 530.448 145.293 530.464V541H143.061V528.88ZM161.354 534.136C161.834 534.504 162.338 534.96 162.866 535.504C163.41 536.048 163.938 536.64 164.45 537.28C164.978 537.904 165.474 538.544 165.938 539.2C166.402 539.84 166.794 540.44 167.114 541H164.498C164.162 540.44 163.77 539.872 163.322 539.296C162.89 538.704 162.434 538.144 161.954 537.616C161.474 537.072 160.986 536.576 160.49 536.128C159.994 535.68 159.522 535.304 159.074 535V541H156.842V522.76L159.074 522.376V533.752C159.458 533.368 159.882 532.944 160.346 532.48C160.81 532.016 161.266 531.544 161.714 531.064C162.162 530.584 162.586 530.128 162.986 529.696C163.386 529.248 163.73 528.856 164.018 528.52H166.634C166.266 528.92 165.866 529.36 165.434 529.84C165.002 530.32 164.554 530.808 164.09 531.304C163.626 531.784 163.154 532.272 162.674 532.768C162.21 533.248 161.77 533.704 161.354 534.136ZM177.84 539.392C178.752 539.392 179.424 539.272 179.856 539.032C180.304 538.792 180.528 538.408 180.528 537.88C180.528 537.336 180.312 536.904 179.88 536.584C179.448 536.264 178.736 535.904 177.744 535.504C177.264 535.312 176.8 535.12 176.352 534.928C175.92 534.72 175.544 534.48 175.224 534.208C174.904 533.936 174.648 533.608 174.456 533.224C174.264 532.84 174.168 532.368 174.168 531.808C174.168 530.704 174.576 529.832 175.392 529.192C176.208 528.536 177.32 528.208 178.728 528.208C179.08 528.208 179.432 528.232 179.784 528.28C180.136 528.312 180.464 528.36 180.768 528.424C181.072 528.472 181.336 528.528 181.56 528.592C181.8 528.656 181.984 528.712 182.112 528.76L181.704 530.68C181.464 530.552 181.088 530.424 180.576 530.296C180.064 530.152 179.448 530.08 178.728 530.08C178.104 530.08 177.56 530.208 177.096 530.464C176.632 530.704 176.4 531.088 176.4 531.616C176.4 531.888 176.448 532.128 176.544 532.336C176.656 532.544 176.816 532.736 177.024 532.912C177.248 533.072 177.52 533.224 177.84 533.368C178.16 533.512 178.544 533.664 178.992 533.824C179.584 534.048 180.112 534.272 180.576 534.496C181.04 534.704 181.432 534.952 181.752 535.24C182.088 535.528 182.344 535.88 182.52 536.296C182.696 536.696 182.784 537.192 182.784 537.784C182.784 538.936 182.352 539.808 181.488 540.4C180.64 540.992 179.424 541.288 177.84 541.288C176.736 541.288 175.872 541.192 175.248 541C174.624 540.824 174.2 540.688 173.976 540.592L174.384 538.672C174.64 538.768 175.048 538.912 175.608 539.104C176.168 539.296 176.912 539.392 177.84 539.392ZM184.951 534.784C184.951 533.68 185.111 532.72 185.431 531.904C185.751 531.072 186.175 530.384 186.703 529.84C187.231 529.296 187.839 528.888 188.527 528.616C189.215 528.344 189.919 528.208 190.639 528.208C192.319 528.208 193.607 528.736 194.503 529.792C195.399 530.832 195.847 532.424 195.847 534.568C195.847 534.664 195.847 534.792 195.847 534.952C195.847 535.096 195.839 535.232 195.823 535.36H187.279C187.375 536.656 187.751 537.64 188.407 538.312C189.063 538.984 190.087 539.32 191.479 539.32C192.263 539.32 192.919 539.256 193.447 539.128C193.991 538.984 194.399 538.848 194.671 538.72L194.983 540.592C194.711 540.736 194.231 540.888 193.543 541.048C192.871 541.208 192.103 541.288 191.239 541.288C190.151 541.288 189.207 541.128 188.407 540.808C187.623 540.472 186.975 540.016 186.463 539.44C185.951 538.864 185.567 538.184 185.311 537.4C185.071 536.6 184.951 535.728 184.951 534.784ZM193.519 533.56C193.535 532.552 193.279 531.728 192.751 531.088C192.239 530.432 191.527 530.104 190.615 530.104C190.103 530.104 189.647 530.208 189.247 530.416C188.863 530.608 188.535 530.864 188.263 531.184C187.991 531.504 187.775 531.872 187.615 532.288C187.471 532.704 187.375 533.128 187.327 533.56H193.519ZM199.053 528.88C199.565 528.752 200.245 528.616 201.093 528.472C201.941 528.328 202.917 528.256 204.021 528.256C205.013 528.256 205.837 528.4 206.493 528.688C207.149 528.96 207.669 529.352 208.053 529.864C208.453 530.36 208.733 530.96 208.893 531.664C209.053 532.368 209.133 533.144 209.133 533.992V541H206.901V534.472C206.901 533.704 206.845 533.048 206.733 532.504C206.637 531.96 206.469 531.52 206.229 531.184C205.989 530.848 205.669 530.608 205.269 530.464C204.869 530.304 204.373 530.224 203.781 530.224C203.541 530.224 203.293 530.232 203.037 530.248C202.781 530.264 202.533 530.288 202.293 530.32C202.069 530.336 201.861 530.36 201.669 530.392C201.493 530.424 201.365 530.448 201.285 530.464V541H199.053V528.88ZM214.922 528.52H219.65V530.392H214.922V536.152C214.922 536.776 214.97 537.296 215.066 537.712C215.162 538.112 215.306 538.432 215.498 538.672C215.69 538.896 215.93 539.056 216.218 539.152C216.506 539.248 216.842 539.296 217.226 539.296C217.898 539.296 218.434 539.224 218.834 539.08C219.25 538.92 219.538 538.808 219.698 538.744L220.13 540.592C219.906 540.704 219.514 540.84 218.954 541C218.394 541.176 217.754 541.264 217.034 541.264C216.186 541.264 215.482 541.16 214.922 540.952C214.378 540.728 213.938 540.4 213.602 539.968C213.266 539.536 213.026 539.008 212.882 538.384C212.754 537.744 212.69 537.008 212.69 536.176V525.04L214.922 524.656V528.52Z" fill="white"/>
<path d="M307.227 539.466L300.307 532.545L298 534.852L307.227 544.08L327 524.307L324.693 522L307.227 539.466Z" fill="white"/>
<path d="M105.693 305.784C105.693 304.328 105.333 303.208 104.613 302.424C103.893 301.64 102.933 301.248 101.733 301.248C101.061 301.248 100.533 301.272 100.149 301.32C99.7814 301.368 99.4854 301.424 99.2614 301.488V309.36C99.5334 309.584 99.9254 309.8 100.437 310.008C100.949 310.216 101.509 310.32 102.117 310.32C102.757 310.32 103.301 310.208 103.749 309.984C104.213 309.744 104.589 309.424 104.877 309.024C105.165 308.608 105.373 308.128 105.501 307.584C105.629 307.024 105.693 306.424 105.693 305.784ZM108.021 305.784C108.021 306.728 107.893 307.6 107.637 308.4C107.397 309.2 107.037 309.888 106.557 310.464C106.077 311.04 105.485 311.488 104.781 311.808C104.093 312.128 103.301 312.288 102.405 312.288C101.685 312.288 101.045 312.192 100.485 312C99.9414 311.808 99.5334 311.624 99.2614 311.448V316.44H97.0294V299.904C97.5574 299.776 98.2134 299.64 98.9974 299.496C99.7974 299.336 100.717 299.256 101.757 299.256C102.717 299.256 103.581 299.408 104.349 299.712C105.117 300.016 105.773 300.448 106.317 301.008C106.861 301.568 107.277 302.256 107.565 303.072C107.869 303.872 108.021 304.776 108.021 305.784ZM114.906 312.24C113.53 312.208 112.554 311.912 111.978 311.352C111.402 310.792 111.114 309.92 111.114 308.736V293.76L113.346 293.376V308.376C113.346 308.744 113.378 309.048 113.442 309.288C113.506 309.528 113.61 309.72 113.754 309.864C113.898 310.008 114.09 310.12 114.33 310.2C114.57 310.264 114.866 310.32 115.218 310.368L114.906 312.24ZM117.029 305.784C117.029 304.68 117.189 303.72 117.509 302.904C117.829 302.072 118.253 301.384 118.781 300.84C119.309 300.296 119.917 299.888 120.605 299.616C121.293 299.344 121.997 299.208 122.717 299.208C124.397 299.208 125.685 299.736 126.581 300.792C127.477 301.832 127.925 303.424 127.925 305.568C127.925 305.664 127.925 305.792 127.925 305.952C127.925 306.096 127.917 306.232 127.901 306.36H119.357C119.453 307.656 119.829 308.64 120.485 309.312C121.141 309.984 122.165 310.32 123.557 310.32C124.341 310.32 124.997 310.256 125.525 310.128C126.069 309.984 126.477 309.848 126.749 309.72L127.061 311.592C126.789 311.736 126.309 311.888 125.621 312.048C124.949 312.208 124.181 312.288 123.317 312.288C122.229 312.288 121.285 312.128 120.485 311.808C119.701 311.472 119.053 311.016 118.541 310.44C118.029 309.864 117.645 309.184 117.389 308.4C117.149 307.6 117.029 306.728 117.029 305.784ZM125.597 304.56C125.613 303.552 125.357 302.728 124.829 302.088C124.317 301.432 123.605 301.104 122.693 301.104C122.181 301.104 121.725 301.208 121.325 301.416C120.941 301.608 120.613 301.864 120.341 302.184C120.069 302.504 119.853 302.872 119.693 303.288C119.549 303.704 119.453 304.128 119.405 304.56H125.597ZM135.355 310.392C135.883 310.392 136.347 310.384 136.747 310.368C137.163 310.336 137.507 310.288 137.779 310.224V306.504C137.619 306.424 137.355 306.36 136.987 306.312C136.635 306.248 136.203 306.216 135.691 306.216C135.355 306.216 134.995 306.24 134.611 306.288C134.243 306.336 133.899 306.44 133.579 306.6C133.275 306.744 133.019 306.952 132.811 307.224C132.603 307.48 132.499 307.824 132.499 308.256C132.499 309.056 132.755 309.616 133.267 309.936C133.779 310.24 134.475 310.392 135.355 310.392ZM135.163 299.208C136.059 299.208 136.811 299.328 137.419 299.568C138.043 299.792 138.539 300.12 138.907 300.552C139.291 300.968 139.563 301.472 139.723 302.064C139.883 302.64 139.963 303.28 139.963 303.984V311.784C139.771 311.816 139.499 311.864 139.147 311.928C138.811 311.976 138.427 312.024 137.995 312.072C137.563 312.12 137.091 312.16 136.579 312.192C136.083 312.24 135.587 312.264 135.091 312.264C134.387 312.264 133.739 312.192 133.147 312.048C132.555 311.904 132.043 311.68 131.611 311.376C131.179 311.056 130.843 310.64 130.603 310.128C130.363 309.616 130.243 309 130.243 308.28C130.243 307.592 130.379 307 130.651 306.504C130.939 306.008 131.323 305.608 131.803 305.304C132.283 305 132.843 304.776 133.483 304.632C134.123 304.488 134.795 304.416 135.499 304.416C135.723 304.416 135.955 304.432 136.195 304.464C136.435 304.48 136.659 304.512 136.867 304.56C137.091 304.592 137.283 304.624 137.443 304.656C137.603 304.688 137.715 304.712 137.779 304.728V304.104C137.779 303.736 137.739 303.376 137.659 303.024C137.579 302.656 137.435 302.336 137.227 302.064C137.019 301.776 136.731 301.552 136.363 301.392C136.011 301.216 135.547 301.128 134.971 301.128C134.235 301.128 133.587 301.184 133.027 301.296C132.483 301.392 132.075 301.496 131.803 301.608L131.539 299.76C131.827 299.632 132.307 299.512 132.979 299.4C133.651 299.272 134.379 299.208 135.163 299.208ZM146.574 310.392C147.486 310.392 148.158 310.272 148.59 310.032C149.038 309.792 149.262 309.408 149.262 308.88C149.262 308.336 149.046 307.904 148.614 307.584C148.182 307.264 147.47 306.904 146.478 306.504C145.998 306.312 145.534 306.12 145.086 305.928C144.654 305.72 144.278 305.48 143.958 305.208C143.638 304.936 143.382 304.608 143.19 304.224C142.998 303.84 142.902 303.368 142.902 302.808C142.902 301.704 143.31 300.832 144.126 300.192C144.942 299.536 146.054 299.208 147.462 299.208C147.814 299.208 148.166 299.232 148.518 299.28C148.87 299.312 149.198 299.36 149.502 299.424C149.806 299.472 150.07 299.528 150.294 299.592C150.534 299.656 150.718 299.712 150.846 299.76L150.438 301.68C150.198 301.552 149.822 301.424 149.31 301.296C148.798 301.152 148.182 301.08 147.462 301.08C146.838 301.08 146.294 301.208 145.83 301.464C145.366 301.704 145.134 302.088 145.134 302.616C145.134 302.888 145.182 303.128 145.278 303.336C145.39 303.544 145.55 303.736 145.758 303.912C145.982 304.072 146.254 304.224 146.574 304.368C146.894 304.512 147.278 304.664 147.726 304.824C148.318 305.048 148.846 305.272 149.31 305.496C149.774 305.704 150.166 305.952 150.486 306.24C150.822 306.528 151.078 306.88 151.254 307.296C151.43 307.696 151.518 308.192 151.518 308.784C151.518 309.936 151.086 310.808 150.222 311.4C149.374 311.992 148.158 312.288 146.574 312.288C145.47 312.288 144.606 312.192 143.982 312C143.358 311.824 142.934 311.688 142.71 311.592L143.118 309.672C143.374 309.768 143.782 309.912 144.342 310.104C144.902 310.296 145.646 310.392 146.574 310.392ZM153.685 305.784C153.685 304.68 153.845 303.72 154.165 302.904C154.485 302.072 154.909 301.384 155.437 300.84C155.965 300.296 156.573 299.888 157.261 299.616C157.949 299.344 158.653 299.208 159.373 299.208C161.053 299.208 162.341 299.736 163.237 300.792C164.133 301.832 164.581 303.424 164.581 305.568C164.581 305.664 164.581 305.792 164.581 305.952C164.581 306.096 164.573 306.232 164.557 306.36H156.013C156.109 307.656 156.485 308.64 157.141 309.312C157.797 309.984 158.821 310.32 160.213 310.32C160.997 310.32 161.653 310.256 162.181 310.128C162.725 309.984 163.133 309.848 163.405 309.72L163.717 311.592C163.445 311.736 162.965 311.888 162.277 312.048C161.605 312.208 160.837 312.288 159.973 312.288C158.885 312.288 157.941 312.128 157.141 311.808C156.357 311.472 155.709 311.016 155.197 310.44C154.685 309.864 154.301 309.184 154.045 308.4C153.805 307.6 153.685 306.728 153.685 305.784ZM162.253 304.56C162.269 303.552 162.013 302.728 161.485 302.088C160.973 301.432 160.261 301.104 159.349 301.104C158.837 301.104 158.381 301.208 157.981 301.416C157.597 301.608 157.269 301.864 156.997 302.184C156.725 302.504 156.509 302.872 156.349 303.288C156.205 303.704 156.109 304.128 156.061 304.56H162.253ZM181.166 310.752C180.974 310.88 180.598 311.048 180.038 311.256C179.494 311.448 178.854 311.544 178.118 311.544C177.366 311.544 176.654 311.424 175.982 311.184C175.326 310.944 174.75 310.576 174.254 310.08C173.758 309.568 173.366 308.936 173.078 308.184C172.79 307.432 172.646 306.536 172.646 305.496C172.646 304.584 172.782 303.752 173.054 303C173.326 302.232 173.718 301.576 174.23 301.032C174.758 300.472 175.398 300.04 176.15 299.736C176.902 299.416 177.75 299.256 178.694 299.256C179.734 299.256 180.638 299.336 181.406 299.496C182.19 299.64 182.846 299.776 183.374 299.904V311.04C183.374 312.96 182.878 314.352 181.886 315.216C180.894 316.08 179.39 316.512 177.374 316.512C176.59 316.512 175.846 316.448 175.142 316.32C174.454 316.192 173.854 316.04 173.342 315.864L173.75 313.92C174.198 314.096 174.742 314.248 175.382 314.376C176.038 314.52 176.718 314.592 177.422 314.592C178.75 314.592 179.702 314.328 180.278 313.8C180.87 313.272 181.166 312.432 181.166 311.28V310.752ZM181.142 301.488C180.918 301.424 180.614 301.368 180.23 301.32C179.862 301.256 179.358 301.224 178.718 301.224C177.518 301.224 176.59 301.616 175.934 302.4C175.294 303.184 174.974 304.224 174.974 305.52C174.974 306.24 175.062 306.856 175.238 307.368C175.43 307.88 175.678 308.304 175.982 308.64C176.302 308.976 176.662 309.224 177.062 309.384C177.478 309.544 177.902 309.624 178.334 309.624C178.926 309.624 179.47 309.544 179.966 309.384C180.462 309.208 180.854 309.008 181.142 308.784V301.488ZM198.233 305.76C198.233 306.752 198.089 307.648 197.801 308.448C197.513 309.248 197.105 309.936 196.577 310.512C196.065 311.088 195.449 311.536 194.729 311.856C194.009 312.16 193.225 312.312 192.377 312.312C191.529 312.312 190.745 312.16 190.025 311.856C189.305 311.536 188.681 311.088 188.153 310.512C187.641 309.936 187.241 309.248 186.953 308.448C186.665 307.648 186.521 306.752 186.521 305.76C186.521 304.784 186.665 303.896 186.953 303.096C187.241 302.28 187.641 301.584 188.153 301.008C188.681 300.432 189.305 299.992 190.025 299.688C190.745 299.368 191.529 299.208 192.377 299.208C193.225 299.208 194.009 299.368 194.729 299.688C195.449 299.992 196.065 300.432 196.577 301.008C197.105 301.584 197.513 302.28 197.801 303.096C198.089 303.896 198.233 304.784 198.233 305.76ZM195.905 305.76C195.905 304.352 195.585 303.24 194.945 302.424C194.321 301.592 193.465 301.176 192.377 301.176C191.289 301.176 190.425 301.592 189.785 302.424C189.161 303.24 188.849 304.352 188.849 305.76C188.849 307.168 189.161 308.288 189.785 309.12C190.425 309.936 191.289 310.344 192.377 310.344C193.465 310.344 194.321 309.936 194.945 309.12C195.585 308.288 195.905 307.168 195.905 305.76ZM209.016 299.52H213.744V301.392H209.016V307.152C209.016 307.776 209.064 308.296 209.16 308.712C209.256 309.112 209.4 309.432 209.592 309.672C209.784 309.896 210.024 310.056 210.312 310.152C210.6 310.248 210.936 310.296 211.32 310.296C211.992 310.296 212.528 310.224 212.928 310.08C213.344 309.92 213.632 309.808 213.792 309.744L214.224 311.592C214 311.704 213.608 311.84 213.048 312C212.488 312.176 211.848 312.264 211.128 312.264C210.28 312.264 209.576 312.16 209.016 311.952C208.472 311.728 208.032 311.4 207.696 310.968C207.36 310.536 207.12 310.008 206.976 309.384C206.848 308.744 206.784 308.008 206.784 307.176V296.04L209.016 295.656V299.52ZM227.272 305.76C227.272 306.752 227.128 307.648 226.84 308.448C226.552 309.248 226.144 309.936 225.616 310.512C225.104 311.088 224.488 311.536 223.768 311.856C223.048 312.16 222.264 312.312 221.416 312.312C220.568 312.312 219.784 312.16 219.064 311.856C218.344 311.536 217.72 311.088 217.192 310.512C216.68 309.936 216.28 309.248 215.992 308.448C215.704 307.648 215.56 306.752 215.56 305.76C215.56 304.784 215.704 303.896 215.992 303.096C216.28 302.28 216.68 301.584 217.192 301.008C217.72 300.432 218.344 299.992 219.064 299.688C219.784 299.368 220.568 299.208 221.416 299.208C222.264 299.208 223.048 299.368 223.768 299.688C224.488 299.992 225.104 300.432 225.616 301.008C226.144 301.584 226.552 302.28 226.84 303.096C227.128 303.896 227.272 304.784 227.272 305.76ZM224.944 305.76C224.944 304.352 224.624 303.24 223.984 302.424C223.36 301.592 222.504 301.176 221.416 301.176C220.328 301.176 219.464 301.592 218.824 302.424C218.2 303.24 217.888 304.352 217.888 305.76C217.888 307.168 218.2 308.288 218.824 309.12C219.464 309.936 220.328 310.344 221.416 310.344C222.504 310.344 223.36 309.936 223.984 309.12C224.624 308.288 224.944 307.168 224.944 305.76ZM235.967 299.88C236.479 299.752 237.151 299.616 237.983 299.472C238.831 299.328 239.807 299.256 240.911 299.256C241.711 299.256 242.383 299.368 242.927 299.592C243.471 299.8 243.927 300.112 244.295 300.528C244.407 300.448 244.583 300.336 244.823 300.192C245.063 300.048 245.359 299.912 245.711 299.784C246.063 299.64 246.455 299.52 246.887 299.424C247.319 299.312 247.783 299.256 248.279 299.256C249.239 299.256 250.023 299.4 250.631 299.688C251.239 299.96 251.711 300.352 252.047 300.864C252.399 301.376 252.631 301.984 252.743 302.688C252.871 303.392 252.935 304.16 252.935 304.992V312H250.703V305.472C250.703 304.736 250.663 304.104 250.583 303.576C250.519 303.048 250.383 302.608 250.175 302.256C249.983 301.904 249.711 301.648 249.359 301.488C249.023 301.312 248.583 301.224 248.039 301.224C247.287 301.224 246.663 301.328 246.167 301.536C245.687 301.728 245.359 301.904 245.183 302.064C245.311 302.48 245.407 302.936 245.471 303.432C245.535 303.928 245.567 304.448 245.567 304.992V312H243.335V305.472C243.335 304.736 243.295 304.104 243.215 303.576C243.135 303.048 242.991 302.608 242.783 302.256C242.591 301.904 242.319 301.648 241.967 301.488C241.631 301.312 241.199 301.224 240.671 301.224C240.447 301.224 240.207 301.232 239.951 301.248C239.695 301.264 239.447 301.288 239.207 301.32C238.983 301.336 238.775 301.36 238.583 301.392C238.391 301.424 238.263 301.448 238.199 301.464V312H235.967V299.88ZM260.863 310.392C261.391 310.392 261.855 310.384 262.255 310.368C262.671 310.336 263.015 310.288 263.287 310.224V306.504C263.127 306.424 262.863 306.36 262.495 306.312C262.143 306.248 261.711 306.216 261.199 306.216C260.863 306.216 260.503 306.24 260.119 306.288C259.751 306.336 259.407 306.44 259.087 306.6C258.783 306.744 258.527 306.952 258.319 307.224C258.111 307.48 258.007 307.824 258.007 308.256C258.007 309.056 258.263 309.616 258.775 309.936C259.287 310.24 259.983 310.392 260.863 310.392ZM260.671 299.208C261.567 299.208 262.319 299.328 262.927 299.568C263.551 299.792 264.047 300.12 264.415 300.552C264.799 300.968 265.071 301.472 265.231 302.064C265.391 302.64 265.471 303.28 265.471 303.984V311.784C265.279 311.816 265.007 311.864 264.655 311.928C264.319 311.976 263.935 312.024 263.503 312.072C263.071 312.12 262.599 312.16 262.087 312.192C261.591 312.24 261.095 312.264 260.599 312.264C259.895 312.264 259.247 312.192 258.655 312.048C258.063 311.904 257.551 311.68 257.119 311.376C256.687 311.056 256.351 310.64 256.111 310.128C255.871 309.616 255.751 309 255.751 308.28C255.751 307.592 255.887 307 256.159 306.504C256.447 306.008 256.831 305.608 257.311 305.304C257.791 305 258.351 304.776 258.991 304.632C259.631 304.488 260.303 304.416 261.007 304.416C261.231 304.416 261.463 304.432 261.703 304.464C261.943 304.48 262.167 304.512 262.375 304.56C262.599 304.592 262.791 304.624 262.951 304.656C263.111 304.688 263.223 304.712 263.287 304.728V304.104C263.287 303.736 263.247 303.376 263.167 303.024C263.087 302.656 262.943 302.336 262.735 302.064C262.527 301.776 262.239 301.552 261.871 301.392C261.519 301.216 261.055 301.128 260.479 301.128C259.743 301.128 259.095 301.184 258.535 301.296C257.991 301.392 257.583 301.496 257.311 301.608L257.047 299.76C257.335 299.632 257.815 299.512 258.487 299.4C259.159 299.272 259.887 299.208 260.671 299.208ZM271.41 312H269.178V299.52H271.41V312ZM270.282 297.264C269.882 297.264 269.538 297.136 269.25 296.88C268.978 296.608 268.842 296.248 268.842 295.8C268.842 295.352 268.978 295 269.25 294.744C269.538 294.472 269.882 294.336 270.282 294.336C270.682 294.336 271.018 294.472 271.29 294.744C271.578 295 271.722 295.352 271.722 295.8C271.722 296.248 271.578 296.608 271.29 296.88C271.018 297.136 270.682 297.264 270.282 297.264ZM278.992 312.24C277.616 312.208 276.64 311.912 276.064 311.352C275.488 310.792 275.2 309.92 275.2 308.736V293.76L277.432 293.376V308.376C277.432 308.744 277.464 309.048 277.528 309.288C277.592 309.528 277.696 309.72 277.84 309.864C277.984 310.008 278.176 310.12 278.416 310.2C278.656 310.264 278.952 310.32 279.304 310.368L278.992 312.24ZM125.734 338.392C126.262 338.392 126.726 338.384 127.126 338.368C127.542 338.336 127.886 338.288 128.158 338.224V334.504C127.998 334.424 127.734 334.36 127.366 334.312C127.014 334.248 126.582 334.216 126.07 334.216C125.734 334.216 125.374 334.24 124.99 334.288C124.622 334.336 124.278 334.44 123.958 334.6C123.654 334.744 123.398 334.952 123.19 335.224C122.982 335.48 122.878 335.824 122.878 336.256C122.878 337.056 123.134 337.616 123.646 337.936C124.158 338.24 124.854 338.392 125.734 338.392ZM125.542 327.208C126.438 327.208 127.19 327.328 127.798 327.568C128.422 327.792 128.918 328.12 129.286 328.552C129.67 328.968 129.942 329.472 130.102 330.064C130.262 330.64 130.342 331.28 130.342 331.984V339.784C130.15 339.816 129.878 339.864 129.526 339.928C129.19 339.976 128.806 340.024 128.374 340.072C127.942 340.12 127.47 340.16 126.958 340.192C126.462 340.24 125.966 340.264 125.47 340.264C124.766 340.264 124.118 340.192 123.526 340.048C122.934 339.904 122.422 339.68 121.99 339.376C121.558 339.056 121.222 338.64 120.982 338.128C120.742 337.616 120.622 337 120.622 336.28C120.622 335.592 120.758 335 121.03 334.504C121.318 334.008 121.702 333.608 122.182 333.304C122.662 333 123.222 332.776 123.862 332.632C124.502 332.488 125.174 332.416 125.878 332.416C126.102 332.416 126.334 332.432 126.574 332.464C126.814 332.48 127.038 332.512 127.246 332.56C127.47 332.592 127.662 332.624 127.822 332.656C127.982 332.688 128.094 332.712 128.158 332.728V332.104C128.158 331.736 128.118 331.376 128.038 331.024C127.958 330.656 127.814 330.336 127.606 330.064C127.398 329.776 127.11 329.552 126.742 329.392C126.39 329.216 125.926 329.128 125.35 329.128C124.614 329.128 123.966 329.184 123.406 329.296C122.862 329.392 122.454 329.496 122.182 329.608L121.918 327.76C122.206 327.632 122.686 327.512 123.358 327.4C124.03 327.272 124.758 327.208 125.542 327.208ZM134.049 327.88C134.561 327.752 135.241 327.616 136.089 327.472C136.937 327.328 137.913 327.256 139.017 327.256C140.009 327.256 140.833 327.4 141.489 327.688C142.145 327.96 142.665 328.352 143.049 328.864C143.449 329.36 143.729 329.96 143.889 330.664C144.049 331.368 144.129 332.144 144.129 332.992V340H141.897V333.472C141.897 332.704 141.841 332.048 141.729 331.504C141.633 330.96 141.465 330.52 141.225 330.184C140.985 329.848 140.665 329.608 140.265 329.464C139.865 329.304 139.369 329.224 138.777 329.224C138.537 329.224 138.289 329.232 138.033 329.248C137.777 329.264 137.529 329.288 137.289 329.32C137.065 329.336 136.857 329.36 136.665 329.392C136.489 329.424 136.361 329.448 136.281 329.464V340H134.049V327.88ZM155.894 330.16C155.622 329.936 155.23 329.72 154.718 329.512C154.206 329.304 153.646 329.2 153.038 329.2C152.398 329.2 151.846 329.32 151.382 329.56C150.934 329.784 150.566 330.104 150.278 330.52C149.99 330.92 149.782 331.4 149.654 331.96C149.526 332.52 149.462 333.12 149.462 333.76C149.462 335.216 149.822 336.344 150.542 337.144C151.262 337.928 152.222 338.32 153.422 338.32C154.03 338.32 154.534 338.296 154.934 338.248C155.35 338.184 155.67 338.12 155.894 338.056V330.16ZM155.894 321.76L158.126 321.376V339.64C157.614 339.784 156.958 339.928 156.158 340.072C155.358 340.216 154.438 340.288 153.398 340.288C152.438 340.288 151.574 340.136 150.806 339.832C150.038 339.528 149.382 339.096 148.838 338.536C148.294 337.976 147.87 337.296 147.566 336.496C147.278 335.68 147.134 334.768 147.134 333.76C147.134 332.8 147.254 331.92 147.494 331.12C147.75 330.32 148.118 329.632 148.598 329.056C149.078 328.48 149.662 328.032 150.35 327.712C151.054 327.392 151.854 327.232 152.75 327.232C153.47 327.232 154.102 327.328 154.646 327.52C155.206 327.712 155.622 327.896 155.894 328.072V321.76ZM172.942 340.288C171.934 340.288 171.046 340.128 170.278 339.808C169.526 339.488 168.886 339.04 168.358 338.464C167.846 337.888 167.462 337.208 167.206 336.424C166.95 335.624 166.822 334.744 166.822 333.784C166.822 332.824 166.958 331.944 167.23 331.144C167.518 330.344 167.918 329.656 168.43 329.08C168.942 328.488 169.566 328.032 170.302 327.712C171.054 327.376 171.886 327.208 172.798 327.208C173.358 327.208 173.918 327.256 174.478 327.352C175.038 327.448 175.574 327.6 176.086 327.808L175.582 329.704C175.246 329.544 174.854 329.416 174.406 329.32C173.974 329.224 173.51 329.176 173.014 329.176C171.766 329.176 170.806 329.568 170.134 330.352C169.478 331.136 169.15 332.28 169.15 333.784C169.15 334.456 169.222 335.072 169.366 335.632C169.526 336.192 169.766 336.672 170.086 337.072C170.422 337.472 170.846 337.784 171.358 338.008C171.87 338.216 172.494 338.32 173.23 338.32C173.822 338.32 174.358 338.264 174.838 338.152C175.318 338.04 175.694 337.92 175.966 337.792L176.278 339.664C176.15 339.744 175.966 339.824 175.726 339.904C175.486 339.968 175.214 340.024 174.91 340.072C174.606 340.136 174.278 340.184 173.926 340.216C173.59 340.264 173.262 340.288 172.942 340.288ZM182.418 340.24C181.042 340.208 180.066 339.912 179.49 339.352C178.914 338.792 178.626 337.92 178.626 336.736V321.76L180.858 321.376V336.376C180.858 336.744 180.89 337.048 180.954 337.288C181.018 337.528 181.122 337.72 181.266 337.864C181.41 338.008 181.602 338.12 181.842 338.2C182.082 338.264 182.378 338.32 182.73 338.368L182.418 340.24ZM187.468 340H185.236V327.52H187.468V340ZM186.34 325.264C185.94 325.264 185.596 325.136 185.308 324.88C185.036 324.608 184.9 324.248 184.9 323.8C184.9 323.352 185.036 323 185.308 322.744C185.596 322.472 185.94 322.336 186.34 322.336C186.74 322.336 187.076 322.472 187.348 322.744C187.636 323 187.78 323.352 187.78 323.8C187.78 324.248 187.636 324.608 187.348 324.88C187.076 325.136 186.74 325.264 186.34 325.264ZM196.731 340.288C195.723 340.288 194.835 340.128 194.067 339.808C193.315 339.488 192.675 339.04 192.147 338.464C191.635 337.888 191.251 337.208 190.995 336.424C190.739 335.624 190.611 334.744 190.611 333.784C190.611 332.824 190.747 331.944 191.019 331.144C191.307 330.344 191.707 329.656 192.219 329.08C192.731 328.488 193.355 328.032 194.091 327.712C194.843 327.376 195.675 327.208 196.587 327.208C197.147 327.208 197.707 327.256 198.267 327.352C198.827 327.448 199.363 327.6 199.875 327.808L199.371 329.704C199.035 329.544 198.643 329.416 198.195 329.32C197.763 329.224 197.299 329.176 196.803 329.176C195.555 329.176 194.595 329.568 193.923 330.352C193.267 331.136 192.939 332.28 192.939 333.784C192.939 334.456 193.011 335.072 193.155 335.632C193.315 336.192 193.555 336.672 193.875 337.072C194.211 337.472 194.635 337.784 195.147 338.008C195.659 338.216 196.283 338.32 197.019 338.32C197.611 338.32 198.147 338.264 198.627 338.152C199.107 338.04 199.483 337.92 199.755 337.792L200.067 339.664C199.939 339.744 199.755 339.824 199.515 339.904C199.275 339.968 199.003 340.024 198.699 340.072C198.395 340.136 198.067 340.184 197.715 340.216C197.379 340.264 197.051 340.288 196.731 340.288ZM206.975 333.136C207.455 333.504 207.959 333.96 208.487 334.504C209.031 335.048 209.559 335.64 210.071 336.28C210.599 336.904 211.095 337.544 211.559 338.2C212.023 338.84 212.415 339.44 212.735 340H210.119C209.783 339.44 209.391 338.872 208.943 338.296C208.511 337.704 208.055 337.144 207.575 336.616C207.095 336.072 206.607 335.576 206.111 335.128C205.615 334.68 205.143 334.304 204.695 334V340H202.463V321.76L204.695 321.376V332.752C205.079 332.368 205.503 331.944 205.967 331.48C206.431 331.016 206.887 330.544 207.335 330.064C207.783 329.584 208.207 329.128 208.607 328.696C209.007 328.248 209.351 327.856 209.639 327.52H212.255C211.887 327.92 211.487 328.36 211.055 328.84C210.623 329.32 210.175 329.808 209.711 330.304C209.247 330.784 208.775 331.272 208.295 331.768C207.831 332.248 207.391 332.704 206.975 333.136ZM222.645 327.52H227.373V329.392H222.645V335.152C222.645 335.776 222.693 336.296 222.789 336.712C222.885 337.112 223.029 337.432 223.221 337.672C223.413 337.896 223.653 338.056 223.941 338.152C224.229 338.248 224.565 338.296 224.949 338.296C225.621 338.296 226.157 338.224 226.557 338.08C226.973 337.92 227.261 337.808 227.421 337.744L227.853 339.592C227.629 339.704 227.237 339.84 226.677 340C226.117 340.176 225.477 340.264 224.757 340.264C223.909 340.264 223.205 340.16 222.645 339.952C222.101 339.728 221.661 339.4 221.325 338.968C220.989 338.536 220.749 338.008 220.605 337.384C220.477 336.744 220.413 336.008 220.413 335.176V324.04L222.645 323.656V327.52ZM230.213 340V321.76L232.445 321.376V327.76C232.861 327.6 233.301 327.48 233.765 327.4C234.245 327.304 234.717 327.256 235.181 327.256C236.173 327.256 236.997 327.4 237.653 327.688C238.309 327.96 238.829 328.352 239.213 328.864C239.613 329.36 239.893 329.96 240.053 330.664C240.213 331.368 240.293 332.144 240.293 332.992V340H238.061V333.472C238.061 332.704 238.005 332.048 237.893 331.504C237.797 330.96 237.629 330.52 237.389 330.184C237.149 329.848 236.829 329.608 236.429 329.464C236.029 329.304 235.533 329.224 234.941 329.224C234.701 329.224 234.453 329.24 234.197 329.272C233.941 329.304 233.693 329.344 233.453 329.392C233.229 329.424 233.021 329.464 232.829 329.512C232.653 329.56 232.525 329.6 232.445 329.632V340H230.213ZM243.228 333.784C243.228 332.68 243.388 331.72 243.708 330.904C244.028 330.072 244.452 329.384 244.98 328.84C245.508 328.296 246.116 327.888 246.804 327.616C247.492 327.344 248.196 327.208 248.916 327.208C250.596 327.208 251.884 327.736 252.78 328.792C253.676 329.832 254.124 331.424 254.124 333.568C254.124 333.664 254.124 333.792 254.124 333.952C254.124 334.096 254.116 334.232 254.1 334.36H245.556C245.652 335.656 246.028 336.64 246.684 337.312C247.34 337.984 248.364 338.32 249.756 338.32C250.54 338.32 251.196 338.256 251.724 338.128C252.268 337.984 252.676 337.848 252.948 337.72L253.26 339.592C252.988 339.736 252.508 339.888 251.82 340.048C251.148 340.208 250.38 340.288 249.516 340.288C248.428 340.288 247.484 340.128 246.684 339.808C245.9 339.472 245.252 339.016 244.74 338.44C244.228 337.864 243.844 337.184 243.588 336.4C243.348 335.6 243.228 334.728 243.228 333.784ZM251.796 332.56C251.812 331.552 251.556 330.728 251.028 330.088C250.516 329.432 249.804 329.104 248.892 329.104C248.38 329.104 247.924 329.208 247.524 329.416C247.14 329.608 246.812 329.864 246.54 330.184C246.268 330.504 246.052 330.872 245.892 331.288C245.748 331.704 245.652 332.128 245.604 332.56H251.796ZM147.152 358.16C146.88 357.936 146.488 357.72 145.976 357.512C145.464 357.304 144.904 357.2 144.296 357.2C143.656 357.2 143.104 357.32 142.64 357.56C142.192 357.784 141.824 358.104 141.536 358.52C141.248 358.92 141.04 359.4 140.912 359.96C140.784 360.52 140.72 361.12 140.72 361.76C140.72 363.216 141.08 364.344 141.8 365.144C142.52 365.928 143.48 366.32 144.68 366.32C145.288 366.32 145.792 366.296 146.192 366.248C146.608 366.184 146.928 366.12 147.152 366.056V358.16ZM147.152 349.76L149.384 349.376V367.64C148.872 367.784 148.216 367.928 147.416 368.072C146.616 368.216 145.696 368.288 144.656 368.288C143.696 368.288 142.832 368.136 142.064 367.832C141.296 367.528 140.64 367.096 140.096 366.536C139.552 365.976 139.128 365.296 138.824 364.496C138.536 363.68 138.392 362.768 138.392 361.76C138.392 360.8 138.512 359.92 138.752 359.12C139.008 358.32 139.376 357.632 139.856 357.056C140.336 356.48 140.92 356.032 141.608 355.712C142.312 355.392 143.112 355.232 144.008 355.232C144.728 355.232 145.36 355.328 145.904 355.52C146.464 355.712 146.88 355.896 147.152 356.072V349.76ZM152.525 361.784C152.525 360.68 152.685 359.72 153.005 358.904C153.325 358.072 153.749 357.384 154.277 356.84C154.805 356.296 155.413 355.888 156.101 355.616C156.789 355.344 157.493 355.208 158.213 355.208C159.893 355.208 161.181 355.736 162.077 356.792C162.973 357.832 163.421 359.424 163.421 361.568C163.421 361.664 163.421 361.792 163.421 361.952C163.421 362.096 163.413 362.232 163.397 362.36H154.853C154.949 363.656 155.325 364.64 155.981 365.312C156.637 365.984 157.661 366.32 159.053 366.32C159.837 366.32 160.493 366.256 161.021 366.128C161.565 365.984 161.973 365.848 162.245 365.72L162.557 367.592C162.285 367.736 161.805 367.888 161.117 368.048C160.445 368.208 159.677 368.288 158.813 368.288C157.725 368.288 156.781 368.128 155.981 367.808C155.197 367.472 154.549 367.016 154.037 366.44C153.525 365.864 153.141 365.184 152.885 364.4C152.645 363.6 152.525 362.728 152.525 361.784ZM161.093 360.56C161.109 359.552 160.853 358.728 160.325 358.088C159.813 357.432 159.101 357.104 158.189 357.104C157.677 357.104 157.221 357.208 156.821 357.416C156.437 357.608 156.109 357.864 155.837 358.184C155.565 358.504 155.349 358.872 155.189 359.288C155.045 359.704 154.949 360.128 154.901 360.56H161.093ZM165.931 361.784C165.931 360.68 166.091 359.72 166.411 358.904C166.731 358.072 167.155 357.384 167.683 356.84C168.211 356.296 168.819 355.888 169.507 355.616C170.195 355.344 170.899 355.208 171.619 355.208C173.299 355.208 174.587 355.736 175.483 356.792C176.379 357.832 176.827 359.424 176.827 361.568C176.827 361.664 176.827 361.792 176.827 361.952C176.827 362.096 176.819 362.232 176.803 362.36H168.259C168.355 363.656 168.731 364.64 169.387 365.312C170.043 365.984 171.067 366.32 172.459 366.32C173.243 366.32 173.899 366.256 174.427 366.128C174.971 365.984 175.379 365.848 175.651 365.72L175.963 367.592C175.691 367.736 175.211 367.888 174.523 368.048C173.851 368.208 173.083 368.288 172.219 368.288C171.131 368.288 170.187 368.128 169.387 367.808C168.603 367.472 167.955 367.016 167.443 366.44C166.931 365.864 166.547 365.184 166.291 364.4C166.051 363.6 165.931 362.728 165.931 361.784ZM174.499 360.56C174.515 359.552 174.259 358.728 173.731 358.088C173.219 357.432 172.507 357.104 171.595 357.104C171.083 357.104 170.627 357.208 170.227 357.416C169.843 357.608 169.515 357.864 169.243 358.184C168.971 358.504 168.755 358.872 168.595 359.288C168.451 359.704 168.355 360.128 168.307 360.56H174.499ZM188.697 361.784C188.697 360.328 188.337 359.208 187.617 358.424C186.897 357.64 185.937 357.248 184.737 357.248C184.065 357.248 183.537 357.272 183.153 357.32C182.785 357.368 182.489 357.424 182.265 357.488V365.36C182.537 365.584 182.929 365.8 183.441 366.008C183.953 366.216 184.513 366.32 185.121 366.32C185.761 366.32 186.305 366.208 186.753 365.984C187.217 365.744 187.593 365.424 187.881 365.024C188.169 364.608 188.377 364.128 188.505 363.584C188.633 363.024 188.697 362.424 188.697 361.784ZM191.025 361.784C191.025 362.728 190.897 363.6 190.641 364.4C190.401 365.2 190.041 365.888 189.561 366.464C189.081 367.04 188.489 367.488 187.785 367.808C187.097 368.128 186.305 368.288 185.409 368.288C184.689 368.288 184.049 368.192 183.489 368C182.945 367.808 182.537 367.624 182.265 367.448V372.44H180.033V355.904C180.561 355.776 181.217 355.64 182.001 355.496C182.801 355.336 183.721 355.256 184.761 355.256C185.721 355.256 186.585 355.408 187.353 355.712C188.121 356.016 188.777 356.448 189.321 357.008C189.865 357.568 190.281 358.256 190.569 359.072C190.873 359.872 191.025 360.776 191.025 361.784ZM197.91 368.24C196.534 368.208 195.558 367.912 194.982 367.352C194.406 366.792 194.118 365.92 194.118 364.736V349.76L196.35 349.376V364.376C196.35 364.744 196.382 365.048 196.446 365.288C196.51 365.528 196.614 365.72 196.758 365.864C196.902 366.008 197.094 366.12 197.334 366.2C197.574 366.264 197.87 366.32 198.222 366.368L197.91 368.24ZM202.961 368H200.729V355.52H202.961V368ZM201.833 353.264C201.433 353.264 201.089 353.136 200.801 352.88C200.529 352.608 200.393 352.248 200.393 351.8C200.393 351.352 200.529 351 200.801 350.744C201.089 350.472 201.433 350.336 201.833 350.336C202.233 350.336 202.569 350.472 202.841 350.744C203.129 351 203.273 351.352 203.273 351.8C203.273 352.248 203.129 352.608 202.841 352.88C202.569 353.136 202.233 353.264 201.833 353.264ZM206.799 355.88C207.311 355.752 207.991 355.616 208.839 355.472C209.687 355.328 210.663 355.256 211.767 355.256C212.759 355.256 213.583 355.4 214.239 355.688C214.895 355.96 215.415 356.352 215.799 356.864C216.199 357.36 216.479 357.96 216.639 358.664C216.799 359.368 216.879 360.144 216.879 360.992V368H214.647V361.472C214.647 360.704 214.591 360.048 214.479 359.504C214.383 358.96 214.215 358.52 213.975 358.184C213.735 357.848 213.415 357.608 213.015 357.464C212.615 357.304 212.119 357.224 211.527 357.224C211.287 357.224 211.039 357.232 210.783 357.248C210.527 357.264 210.279 357.288 210.039 357.32C209.815 357.336 209.607 357.36 209.415 357.392C209.239 357.424 209.111 357.448 209.031 357.464V368H206.799V355.88ZM225.092 361.136C225.572 361.504 226.076 361.96 226.604 362.504C227.148 363.048 227.676 363.64 228.188 364.28C228.716 364.904 229.212 365.544 229.676 366.2C230.14 366.84 230.532 367.44 230.852 368H228.236C227.9 367.44 227.508 366.872 227.06 366.296C226.628 365.704 226.172 365.144 225.692 364.616C225.212 364.072 224.724 363.576 224.228 363.128C223.732 362.68 223.26 362.304 222.812 362V368H220.58V349.76L222.812 349.376V360.752C223.196 360.368 223.62 359.944 224.084 359.48C224.548 359.016 225.004 358.544 225.452 358.064C225.9 357.584 226.324 357.128 226.724 356.696C227.124 356.248 227.468 355.856 227.756 355.52H230.372C230.004 355.92 229.604 356.36 229.172 356.84C228.74 357.32 228.292 357.808 227.828 358.304C227.364 358.784 226.892 359.272 226.412 359.768C225.948 360.248 225.508 360.704 225.092 361.136ZM235.711 355.88C235.711 357.224 235.663 358.448 235.567 359.552C235.471 360.64 235.351 361.728 235.207 362.816H233.815C233.671 361.728 233.551 360.64 233.455 359.552C233.359 358.448 233.311 357.224 233.311 355.88V351.368H235.711V355.88ZM236.119 366.704C236.119 367.136 235.975 367.512 235.687 367.832C235.399 368.152 235.007 368.312 234.511 368.312C234.015 368.312 233.623 368.152 233.335 367.832C233.047 367.512 232.903 367.136 232.903 366.704C232.903 366.272 233.047 365.896 233.335 365.576C233.623 365.256 234.015 365.096 234.511 365.096C235.007 365.096 235.399 365.256 235.687 365.576C235.975 365.896 236.119 366.272 236.119 366.704Z" fill="white"/>
<defs>
<clipPath id="clip0">
<rect width="104" height="157" fill="white" transform="translate(136 73)"/>
</clipPath>
</defs>
</svg>
